<?xml version="1.0" encoding="UTF-8" standalone="no"?>
<svg
   xmlns:dc="http://purl.org/dc/elements/1.1/"
   xmlns:cc="http://creativecommons.org/ns#"
   xmlns:rdf="http://www.w3.org/1999/02/22-rdf-syntax-ns#"
   xmlns:svg="http://www.w3.org/2000/svg"
   xmlns="http://www.w3.org/2000/svg"
   xmlns:sodipodi="http://sodipodi.sourceforge.net/DTD/sodipodi-0.dtd"
   xmlns:inkscape="http://www.inkscape.org/namespaces/inkscape"
   version="1.1"
   id="svg2"
   xml:space="preserve"
   width="666.66669"
   height="666.66669"
   viewBox="0 0 666.66669 666.66669"
   sodipodi:docname="344226-PATYU5-316.ai"><metadata
     id="metadata8"><rdf:RDF><cc:Work
         rdf:about=""><dc:format>image/svg+xml</dc:format><dc:type
           rdf:resource="http://purl.org/dc/dcmitype/StillImage" /></cc:Work></rdf:RDF></metadata><defs
     id="defs6"><clipPath
       clipPathUnits="userSpaceOnUse"
       id="clipPath20"><path
         d="M 0,500 H 500 V 0 H 0 Z"
         id="path18" /></clipPath><clipPath
       clipPathUnits="userSpaceOnUse"
       id="clipPath28"><path
         d="M 34.3841,86.3842 H 465.616 V 65.9603 H 34.3841 Z"
         id="path26" /></clipPath><clipPath
       clipPathUnits="userSpaceOnUse"
       id="clipPath48"><path
         d="M 0,500 H 500 V 0 H 0 Z"
         id="path46" /></clipPath><clipPath
       clipPathUnits="userSpaceOnUse"
       id="clipPath172"><path
         d="m 214.553,165.782 h 20.689 v -30.658 h -20.689 z"
         id="path170" /></clipPath><clipPath
       clipPathUnits="userSpaceOnUse"
       id="clipPath188"><path
         d="m 217.841,233.118 h 33.644 v -28.605 h -33.644 z"
         id="path186" /></clipPath><clipPath
       clipPathUnits="userSpaceOnUse"
       id="clipPath396"><path
         d="M 0,500 H 500 V 0 H 0 Z"
         id="path394" /></clipPath></defs><sodipodi:namedview
     pagecolor="#ffffff"
     bordercolor="#666666"
     borderopacity="1"
     objecttolerance="10"
     gridtolerance="10"
     guidetolerance="10"
     inkscape:pageopacity="0"
     inkscape:pageshadow="2"
     inkscape:window-width="640"
     inkscape:window-height="480"
     id="namedview4" /><g
     id="g10"
     inkscape:groupmode="layer"
     inkscape:label="344226-PATYU5-316"
     transform="matrix(1.3333333,0,0,-1.3333333,0,666.66667)"><path
       d="M 0,0 H 500 V 500 H 0 Z"
       style="fill:#ffffff;fill-opacity:1;fill-rule:nonzero;stroke:none"
       id="path12" /><g
       id="g14"><g
         id="g16"
         clip-path="url(#clipPath20)"><g
           id="g22"><g
             id="g24" /><g
             id="g36"><g
               clip-path="url(#clipPath28)"
               opacity="0.679993"
               id="g34"><g
                 transform="translate(465.6159,76.1723)"
                 id="g32"><path
                   d="m 0,0 c 0,-5.64 -96.534,-10.212 -215.616,-10.212 -119.081,0 -215.616,4.572 -215.616,10.212 0,5.64 96.535,10.212 215.616,10.212 C -96.534,10.212 0,5.64 0,0"
                   style="fill:#7fefba;fill-opacity:1;fill-rule:nonzero;stroke:none"
                   id="path30" /></g></g></g></g></g></g><text
       transform="matrix(1,0,0,-1,65.8521,79.6943)"
       style="font-variant:normal;font-weight:normal;font-stretch:normal;font-size:150.142px;font-family:Baloo;-inkscape-font-specification:Baloo;writing-mode:lr-tb;fill:#92dff3;fill-opacity:1;fill-rule:nonzero;stroke:none"
       id="text40"><tspan
         x="0 102.54719 205.09438 288.57349"
         y="0"
         sodipodi:role="line"
         id="tspan38">OOPS</tspan></text><g
       id="g42"><g
         id="g44"
         clip-path="url(#clipPath48)"><g
           id="g50"
           transform="translate(424.9512,71.3229)"><path
             d="m 0,0 c 0,0 -1.424,2.947 -5.324,2.566 -3.901,-0.381 -2.88,3.136 -7.25,3.707 -4.369,0.571 -5.159,-0.721 -10.473,3.743 -5.315,4.464 -9.729,-3.509 -13.683,-0.202 -3.954,3.307 -6.786,8.634 -13.483,6.57 -6.696,-2.064 -3.875,-7.336 -7.842,-9.323 -3.967,-1.988 -8.101,-2.632 -9.776,-7.165 z"
             style="fill:#2fac66;fill-opacity:1;fill-rule:nonzero;stroke:none"
             id="path52" /></g><g
           id="g54"
           transform="translate(194.6252,76.2757)"><path
             d="m 0,0 c 0,0 -1.424,2.947 -5.324,2.566 -3.901,-0.381 -2.88,3.136 -7.25,3.707 -4.369,0.571 -5.159,-0.721 -10.473,3.743 -5.315,4.464 -9.729,-3.509 -13.683,-0.202 -3.954,3.307 -6.786,8.634 -13.483,6.57 -6.696,-2.064 -3.875,-7.336 -7.842,-9.323 -3.967,-1.988 -8.101,-2.632 -9.776,-7.165 z"
             style="fill:#2fac66;fill-opacity:1;fill-rule:nonzero;stroke:none"
             id="path56" /></g><g
           id="g58"
           transform="translate(232.5619,317.7129)"><path
             d="m 0,0 -6.292,-0.661 -3.022,-5.558 -2.573,5.779 -6.22,1.157 4.701,4.233 -0.821,6.273 5.478,-3.163 5.712,2.72 -1.315,-6.188 z"
             style="fill:#fff57d;fill-opacity:1;fill-rule:nonzero;stroke:none"
             id="path60" /></g><g
           id="g62"
           transform="translate(347.2722,310.6997)"><path
             d="M 0,0 -1.079,3.2 -4.327,4.125 -1.617,6.14 -1.741,9.515 1.013,7.561 4.184,8.721 3.176,5.498 5.26,2.841 1.883,2.803 Z"
             style="fill:#fff57d;fill-opacity:1;fill-rule:nonzero;stroke:none"
             id="path64" /></g><g
           id="g66"
           transform="translate(390.5693,192.773)"><path
             d="M 0,0 -1.079,3.2 -4.327,4.125 -1.617,6.14 -1.741,9.515 1.013,7.561 4.184,8.721 3.176,5.498 5.26,2.841 1.883,2.803 Z"
             style="fill:#fff57d;fill-opacity:1;fill-rule:nonzero;stroke:none"
             id="path68" /></g><g
           id="g70"
           transform="translate(369.5438,261.0753)"><path
             d="m 0,0 c 0,-3.108 -2.519,-5.627 -5.627,-5.627 -3.107,0 -5.626,2.519 -5.626,5.627 0,3.108 2.519,5.627 5.626,5.627 C -2.519,5.627 0,3.108 0,0"
             style="fill:#000000;fill-opacity:1;fill-rule:nonzero;stroke:none"
             id="path72" /></g><g
           id="g74"
           transform="translate(361.7938,258.2419)"><path
             d="m 0,0 c 0,-3.108 -2.519,-5.627 -5.627,-5.627 -3.107,0 -5.626,2.519 -5.626,5.627 0,3.108 2.519,5.627 5.626,5.627 C -2.519,5.627 0,3.108 0,0"
             style="fill:#000000;fill-opacity:1;fill-rule:nonzero;stroke:none"
             id="path76" /></g><g
           id="g78"
           transform="translate(358.7104,254.4086)"><path
             d="m 0,0 c 0,-3.108 -2.519,-5.627 -5.627,-5.627 -3.107,0 -5.626,2.519 -5.626,5.627 0,3.108 2.519,5.627 5.626,5.627 C -2.519,5.627 0,3.108 0,0"
             style="fill:#000000;fill-opacity:1;fill-rule:nonzero;stroke:none"
             id="path80" /></g><g
           id="g82"
           transform="translate(394.4205,261.0753)"><path
             d="m 0,0 c 0,-3.108 -2.519,-5.627 -5.627,-5.627 -3.107,0 -5.626,2.519 -5.626,5.627 0,3.108 2.519,5.627 5.626,5.627 C -2.519,5.627 0,3.108 0,0"
             style="fill:#000000;fill-opacity:1;fill-rule:nonzero;stroke:none"
             id="path84" /></g><g
           id="g86"
           transform="translate(386.6705,265.662)"><path
             d="m 0,0 c 0,-3.108 -2.519,-5.627 -5.627,-5.627 -3.107,0 -5.626,2.519 -5.626,5.627 0,3.108 2.519,5.627 5.626,5.627 C -2.519,5.627 0,3.108 0,0"
             style="fill:#000000;fill-opacity:1;fill-rule:nonzero;stroke:none"
             id="path88" /></g><g
           id="g90"
           transform="translate(376.0159,268.221)"><path
             d="m 0,0 c 0,-3.108 -2.519,-5.627 -5.627,-5.627 -3.107,0 -5.626,2.519 -5.626,5.627 0,3.108 2.519,5.627 5.626,5.627 C -2.519,5.627 0,3.108 0,0"
             style="fill:#000000;fill-opacity:1;fill-rule:nonzero;stroke:none"
             id="path92" /></g><g
           id="g94"
           transform="translate(366.2059,266.202)"><path
             d="m 0,0 c 0,-3.108 -2.519,-5.627 -5.627,-5.627 -3.107,0 -5.626,2.519 -5.626,5.627 0,3.108 2.519,5.627 5.626,5.627 C -2.519,5.627 0,3.108 0,0"
             style="fill:#000000;fill-opacity:1;fill-rule:nonzero;stroke:none"
             id="path96" /></g><g
           id="g98"
           transform="translate(402.2892,255.4485)"><path
             d="m 0,0 c 0,-3.108 -2.519,-5.627 -5.627,-5.627 -3.107,0 -5.626,2.519 -5.626,5.627 0,3.108 2.519,5.627 5.626,5.627 C -2.519,5.627 0,3.108 0,0"
             style="fill:#000000;fill-opacity:1;fill-rule:nonzero;stroke:none"
             id="path100" /></g><g
           id="g102"
           transform="translate(399.7538,249.3218)"><path
             d="m 0,0 c 0,-3.108 -2.519,-5.627 -5.627,-5.627 -3.107,0 -5.626,2.519 -5.626,5.627 0,3.108 2.519,5.627 5.626,5.627 C -2.519,5.627 0,3.108 0,0"
             style="fill:#000000;fill-opacity:1;fill-rule:nonzero;stroke:none"
             id="path104" /></g><g
           id="g106"
           transform="translate(404.0872,239.9572)"><path
             d="m 0,0 c 0,-3.108 -2.519,-5.627 -5.627,-5.627 -3.107,0 -5.626,2.519 -5.626,5.627 0,3.108 2.519,5.627 5.626,5.627 C -2.519,5.627 0,3.108 0,0"
             style="fill:#000000;fill-opacity:1;fill-rule:nonzero;stroke:none"
             id="path108" /></g><g
           id="g110"
           transform="translate(395.0997,229.2072)"><path
             d="m 0,0 c 0,-3.108 -2.519,-5.627 -5.627,-5.627 -3.107,0 -5.626,2.519 -5.626,5.627 0,3.108 2.519,5.627 5.626,5.627 C -2.519,5.627 0,3.108 0,0"
             style="fill:#000000;fill-opacity:1;fill-rule:nonzero;stroke:none"
             id="path112" /></g><g
           id="g114"
           transform="translate(400.0472,232.8739)"><path
             d="m 0,0 c 0,-3.108 -2.519,-5.627 -5.627,-5.627 -3.107,0 -5.626,2.519 -5.626,5.627 0,3.108 2.519,5.627 5.626,5.627 C -2.519,5.627 0,3.108 0,0"
             style="fill:#000000;fill-opacity:1;fill-rule:nonzero;stroke:none"
             id="path116" /></g><g
           id="g118"
           transform="translate(406.3532,247.8136)"><path
             d="m 0,0 c 0,-3.108 -2.519,-5.627 -5.627,-5.627 -3.107,0 -5.626,2.519 -5.626,5.627 0,3.108 2.519,5.627 5.626,5.627 C -2.519,5.627 0,3.108 0,0"
             style="fill:#000000;fill-opacity:1;fill-rule:nonzero;stroke:none"
             id="path120" /></g><g
           id="g122"
           transform="translate(389.473,222.5299)"><path
             d="m 0,0 c 0,-3.108 -2.519,-5.627 -5.627,-5.627 -3.107,0 -5.626,2.519 -5.626,5.627 0,3.108 2.519,5.627 5.626,5.627 C -2.519,5.627 0,3.108 0,0"
             style="fill:#000000;fill-opacity:1;fill-rule:nonzero;stroke:none"
             id="path124" /></g><g
           id="g126"
           transform="translate(381.0438,221.6204)"><path
             d="m 0,0 c 0,-3.108 -2.519,-5.627 -5.627,-5.627 -3.107,0 -5.626,2.519 -5.626,5.627 0,3.108 2.519,5.627 5.626,5.627 C -2.519,5.627 0,3.108 0,0"
             style="fill:#000000;fill-opacity:1;fill-rule:nonzero;stroke:none"
             id="path128" /></g><g
           id="g130"
           transform="translate(371.3538,223.5805)"><path
             d="m 0,0 c 0,-3.108 -2.519,-5.627 -5.627,-5.627 -3.107,0 -5.626,2.519 -5.626,5.627 0,3.108 2.519,5.627 5.626,5.627 C -2.519,5.627 0,3.108 0,0"
             style="fill:#000000;fill-opacity:1;fill-rule:nonzero;stroke:none"
             id="path132" /></g><g
           id="g134"
           transform="translate(364.3372,220.6225)"><path
             d="m 0,0 c 0,-3.108 -2.519,-5.627 -5.627,-5.627 -3.107,0 -5.626,2.519 -5.626,5.627 0,3.108 2.519,5.627 5.626,5.627 C -2.519,5.627 0,3.108 0,0"
             style="fill:#000000;fill-opacity:1;fill-rule:nonzero;stroke:none"
             id="path136" /></g><g
           id="g138"
           transform="translate(373.3801,217.9538)"><path
             d="m 0,0 c 0,-3.108 -2.519,-5.627 -5.627,-5.627 -3.107,0 -5.626,2.519 -5.626,5.627 0,3.108 2.519,5.627 5.626,5.627 C -2.519,5.627 0,3.108 0,0"
             style="fill:#000000;fill-opacity:1;fill-rule:nonzero;stroke:none"
             id="path140" /></g><g
           id="g142"
           transform="translate(213.6705,126.4677)"><path
             d="m 0,0 -3.389,-3.213 c 0,0 -4.869,-5.012 -7.829,-4.599 -2.96,0.413 3.764,8.28 4.257,8.637 0.492,0.357 4.567,5.207 5.564,5.649 C -0.401,6.915 -0.476,6.318 1.656,3.751 1.656,3.751 2.198,2.085 0,0"
             style="fill:#000000;fill-opacity:1;fill-rule:nonzero;stroke:none"
             id="path144" /></g><g
           id="g146"
           transform="translate(223.5211,141.6334)"><path
             d="m 0,0 -3.853,-4.267 c -0.78,-0.864 -2.125,-0.896 -2.945,-0.07 -0.746,0.753 -0.788,1.952 -0.095,2.754 l 4.606,5.333 z"
             style="fill:#ffffff;fill-opacity:1;fill-rule:nonzero;stroke:none"
             id="path148" /></g><g
           id="g150"
           transform="translate(213.4181,182.7919)"><path
             d="M 0,0 -0.473,-4.464 C -0.888,-5.551 -3.709,-6.974 -4.772,-6.5 l -1.714,0.765 2.999,8.405 z"
             style="fill:#ffffff;fill-opacity:1;fill-rule:nonzero;stroke:none"
             id="path152" /></g><g
           id="g154"
           transform="translate(212.945,178.3278)"><path
             d="m 0,0 c 0,0 2.353,-3.093 1.184,-5.614 -1.168,-2.52 -19.334,0.532 -19.334,0.532 0,0 -0.642,0.456 0.571,0.879 l 8.724,2.611 c 0,0 3.725,1.72 5.567,1.304 C -1.751,-0.635 0,0 0,0"
             style="fill:#000000;fill-opacity:1;fill-rule:nonzero;stroke:none"
             id="path156" /></g><g
           id="g158"
           transform="translate(217.9161,133.0042)"><path
             d="m 0,0 -3.376,-3.412 -0.794,0.015 c -1.18,0.022 -2.089,1.05 -1.967,2.225 l 2.685,4.132 z"
             style="fill:#ffffff;fill-opacity:1;fill-rule:nonzero;stroke:none"
             id="path160" /></g><g
           id="g162"
           transform="translate(225.0492,231.7901)"><path
             d="m 0,0 c 5.586,-3.317 21.964,-14.701 30.393,-30.961 6.19,-11.94 37.389,-30.598 37.389,-30.598 0,0 1.527,-20.452 -22.512,-17.827 -24.04,2.626 -26.076,-3.009 -32.231,-7.129 -4.868,-3.258 -14.414,-8.532 -19.149,-11.998 -1.327,-0.971 -3.19,-0.676 -4.118,0.682 l -0.027,0.04 c -0.583,0.853 -0.667,1.951 -0.219,2.882 3.477,7.227 13.306,27.529 15.148,29.947 2.245,2.948 20.715,9.738 20.715,9.738 0,0 -19.575,15.034 -23.973,26.473 0,0 -8.199,-10.795 -9.58,-14.884 -0.567,-1.679 -1.391,-4.081 -2.167,-6.336 -2.052,0.348 -4.137,0.436 -6.222,0.553 0.197,8.354 1.017,32.261 4.031,40.852 C -8.844,1.918 -4.205,2.497 0,0"
             style="fill:#1b364f;fill-opacity:1;fill-rule:nonzero;stroke:none"
             id="path164" /></g><g
           id="g166"><g
             id="g168" /><g
             id="g180"><g
               clip-path="url(#clipPath172)"
               opacity="0.389999"
               id="g178"><g
                 transform="translate(229.05,165.7752)"
                 id="g176"><path
                   d="m 0,0 c 0,0 6.876,0.578 6.136,-9.057 -0.74,-9.635 -14.903,-11.795 -16.087,-17.754 -1.183,-5.96 -4.87,-3.583 -4.524,-2.083 0,0 8.59,18.986 14.475,28.894"
                   style="fill:#274f6d;fill-opacity:1;fill-rule:nonzero;stroke:none"
                   id="path174" /></g></g></g></g><g
           id="g182"><g
             id="g184" /><g
             id="g196"><g
               clip-path="url(#clipPath188)"
               opacity="0.389999"
               id="g194"><g
                 transform="translate(243.3541,217.143)"
                 id="g192"><path
                   d="m 0,0 c 0,0 5.685,-6.263 7.943,-11.263 2.257,-5.001 -16.409,4.524 -22.163,15.62 -5.754,11.097 -11.61,5.589 -11.28,10.413 0,0 2.935,4.337 12.392,-3.446 C -3.651,3.542 0,0 0,0"
                   style="fill:#274f6d;fill-opacity:1;fill-rule:nonzero;stroke:none"
                   id="path190" /></g></g></g></g><g
           id="g198"
           transform="translate(250.6661,208.5186)"><path
             d="m 0,0 c 0,0 9.563,-13.714 8.918,-23.056 -1.084,-15.683 3.643,-36.144 26.916,-32.183 0,0 49.348,16.297 57.277,35.043 10.347,24.462 9.248,45.244 -13.727,48.148 -8.729,1.103 -18.189,0.982 -27.831,-1.35 C 14.204,17.57 0,0 0,0"
             style="fill:#36a9e1;fill-opacity:1;fill-rule:nonzero;stroke:none"
             id="path200" /></g><g
           id="g202"
           transform="translate(339.095,191.6772)"><path
             d="m 0,0 23.528,-56.895 4.52,-0.35 -11.125,61.372 c 0,0 -6.3,-3.696 -7.77,-3.727 C 8.694,0.391 8.436,0.384 8.217,0.393 6.781,0.453 5.861,0.438 4.599,0.602 4.242,0.648 3.861,0.572 3.49,0.588 1.647,0.671 0,0 0,0"
             style="fill:#ffcb9c;fill-opacity:1;fill-rule:nonzero;stroke:none"
             id="path204" /></g><g
           id="g206"
           transform="translate(370.0197,135.4976)"><path
             d="m 0,0 c 0,0 12.948,-3.611 13.889,-4.388 0.941,-0.777 -0.009,-1.938 -2.198,-1.201 -2.19,0.737 -9.016,2.407 -9.016,2.407 0,0 10.636,-4.025 10.91,-4.796 0.274,-0.77 -0.479,-1.628 -1.874,-0.927 -1.394,0.701 -8.655,3.001 -8.655,3.001 0,0 5.871,-3.072 6.934,-4.079 1.063,-1.006 -1.023,-1.067 -2.276,-0.318 -1.253,0.749 -6.267,3.279 -6.267,3.279 0,0 3.67,-3.589 3.837,-4.401 0.166,-0.812 -0.526,-0.823 -1.067,-0.465 -0.541,0.358 -4.675,4.517 -4.675,4.517 0,0 -5.402,1.237 -6.792,4.567 -1.39,3.329 0.256,4.685 0.835,4.723 C -5.836,1.957 4.412,2.929 5.923,2.505 7.434,2.08 6.387,0.201 3.829,0.248 1.271,0.294 -0.427,0.691 0,0"
             style="fill:#ffcb9c;fill-opacity:1;fill-rule:nonzero;stroke:none"
             id="path208" /></g><g
           id="g210"
           transform="translate(322.7928,245.8695)"><path
             d="m 0,0 -53.902,29.753 -3.749,-2.549 47.009,-40.994 c 0,0 2.613,6.82 3.742,7.762 0.352,0.294 0.55,0.461 0.727,0.59 1.159,0.85 1.868,1.436 2.956,2.097 0.308,0.186 0.558,0.484 0.858,0.702 C -0.868,-1.553 0,0 0,0"
             style="fill:#ffcb9c;fill-opacity:1;fill-rule:nonzero;stroke:none"
             id="path212" /></g><g
           id="g214"
           transform="translate(270.1221,278.3999)"><path
             d="M 0,0 C 0,0 8.513,10.402 8.836,11.579 9.159,12.756 7.715,13.159 6.348,11.297 4.981,9.434 0.358,4.142 0.358,4.142 c 0,0 6.384,9.411 6.165,10.198 -0.219,0.788 -1.329,1.057 -2.066,-0.319 -0.738,-1.376 -5.354,-7.434 -5.354,-7.434 0,0 3.036,5.89 3.326,7.325 0.29,1.435 -1.451,0.285 -2.045,-1.048 -0.594,-1.334 -3.24,-6.288 -3.24,-6.288 0,0 0.938,5.047 0.606,5.807 -0.331,0.76 -0.902,0.371 -1.139,-0.233 -0.237,-0.604 -1.226,-6.384 -1.226,-6.384 0,0 -3.707,-4.12 -2.928,-7.643 0.778,-3.523 2.904,-3.685 3.4,-3.383 0.495,0.302 9.437,5.403 10.429,6.619 C 7.277,2.575 5.34,3.51 3.275,2 1.209,0.491 0.048,-0.811 0,0"
             style="fill:#ffcb9c;fill-opacity:1;fill-rule:nonzero;stroke:none"
             id="path216" /></g><g
           id="g218"
           transform="translate(346.8127,228.6549)"><path
             d="M 0,0 -32.402,24.33 -48.592,8.938 -45.623,3.827 Z"
             style="fill:#36a9e1;fill-opacity:1;fill-rule:nonzero;stroke:none"
             id="path220" /></g><g
           id="g222"
           transform="translate(352.8894,256.4124)"><path
             d="m 0,0 c -5.685,-4.07 -10.016,-8.986 -8.222,-20.34 0,0 -1.573,-7.46 -8.649,-10.204 -7.075,-2.743 4.509,-19.435 11.404,-11.279 6.894,8.155 19.548,10.398 27.175,10.991 7.626,0.592 18.519,9.546 17.704,19.118 C 39.092,-7.952 33.876,-1.472 28.724,1.58 19.982,6.759 8.262,5.915 0,0"
             style="fill:#ffcb9c;fill-opacity:1;fill-rule:nonzero;stroke:none"
             id="path224" /></g><g
           id="g226"
           transform="translate(373.3801,255.8346)"><path
             d="m 0,0 -14.331,-4.939 4.876,-5.928 z"
             style="fill:#ff6252;fill-opacity:1;fill-rule:nonzero;stroke:none"
             id="path228" /></g><g
           id="g230"
           transform="translate(380.7176,229.8759)"><path
             d="M 0,0 C 0,0 2.706,-2.035 0.619,-5.171 -1.467,-8.307 -10.274,-8.146 -8.778,-4.075 -7.281,-0.004 0,0 0,0"
             style="fill:#ffcb9c;fill-opacity:1;fill-rule:nonzero;stroke:none"
             id="path232" /></g><g
           id="g234"
           transform="translate(371.7914,245.7792)"><path
             d="m 0,0 c -0.731,-0.348 -1.52,-0.218 -1.762,0.289 -0.241,0.508 0.156,1.202 0.887,1.55 C -0.144,2.187 0.645,2.057 0.886,1.55 1.128,1.042 0.731,0.348 0,0"
             style="fill:#000000;fill-opacity:1;fill-rule:nonzero;stroke:none"
             id="path236" /></g><g
           id="g238"
           transform="translate(365.2001,255.1438)"><path
             d="m 0,0 c -0.731,-0.348 -1.52,-0.218 -1.762,0.289 -0.241,0.508 0.156,1.202 0.887,1.55 C -0.144,2.187 0.645,2.057 0.886,1.55 1.128,1.042 0.731,0.348 0,0"
             style="fill:#000000;fill-opacity:1;fill-rule:nonzero;stroke:none"
             id="path240" /></g><g
           id="g242"
           transform="translate(360.7593,240.0896)"><path
             d="m 0,0 c 0.508,-1.504 -0.348,-3.15 -1.911,-3.678 -1.563,-0.528 -3.242,0.264 -3.75,1.767 -0.507,1.504 0.349,3.151 1.912,3.678 C -2.186,2.295 -0.508,1.504 0,0"
             style="fill:#ce3e3e;fill-opacity:1;fill-rule:nonzero;stroke:none"
             id="path244" /></g><g
           id="g246"
           transform="translate(350.043,217.1976)"><path
             d="m 0,0 10.275,-33.298 -16.568,-8.877 -6.666,12.698 z"
             style="fill:#36a9e1;fill-opacity:1;fill-rule:nonzero;stroke:none"
             id="path248" /></g><g
           id="g250"
           transform="translate(378.3967,262.5943)"><path
             d="m 0,0 c 0,-3.108 -2.519,-5.627 -5.627,-5.627 -3.107,0 -5.626,2.519 -5.626,5.627 0,3.108 2.519,5.627 5.626,5.627 C -2.519,5.627 0,3.108 0,0"
             style="fill:#000000;fill-opacity:1;fill-rule:nonzero;stroke:none"
             id="path252" /></g><g
           id="g254"
           transform="translate(387.7538,260.5753)"><path
             d="m 0,0 c 0,-3.108 -2.519,-5.627 -5.627,-5.627 -3.107,0 -5.626,2.519 -5.626,5.627 0,3.108 2.519,5.627 5.626,5.627 C -2.519,5.627 0,3.108 0,0"
             style="fill:#000000;fill-opacity:1;fill-rule:nonzero;stroke:none"
             id="path256" /></g><g
           id="g258"
           transform="translate(394.4205,254.4086)"><path
             d="m 0,0 c 0,-3.108 -2.519,-5.627 -5.627,-5.627 -3.107,0 -5.626,2.519 -5.626,5.627 0,3.108 2.519,5.627 5.626,5.627 C -2.519,5.627 0,3.108 0,0"
             style="fill:#000000;fill-opacity:1;fill-rule:nonzero;stroke:none"
             id="path260" /></g><g
           id="g262"
           transform="translate(397.5872,244.3843)"><path
             d="m 0,0 c 0,-3.108 -2.519,-5.627 -5.627,-5.627 -3.107,0 -5.626,2.519 -5.626,5.627 0,3.108 2.519,5.627 5.626,5.627 C -2.519,5.627 0,3.108 0,0"
             style="fill:#000000;fill-opacity:1;fill-rule:nonzero;stroke:none"
             id="path264" /></g><g
           id="g266"
           transform="translate(395.0997,235.5027)"><path
             d="m 0,0 c 0,-3.108 -2.519,-5.627 -5.627,-5.627 -3.107,0 -5.626,2.519 -5.626,5.627 0,3.108 2.519,5.627 5.626,5.627 C -2.519,5.627 0,3.108 0,0"
             style="fill:#000000;fill-opacity:1;fill-rule:nonzero;stroke:none"
             id="path268" /></g><g
           id="g270"
           transform="translate(386.3337,231.8759)"><path
             d="m 0,0 c 0,-3.108 -2.519,-5.627 -5.627,-5.627 -3.107,0 -5.626,2.519 -5.626,5.627 0,3.108 2.519,5.627 5.626,5.627 C -2.519,5.627 0,3.108 0,0"
             style="fill:#000000;fill-opacity:1;fill-rule:nonzero;stroke:none"
             id="path272" /></g><g
           id="g274"
           transform="translate(390.2104,237.5027)"><path
             d="m 0,0 c 0,-3.108 -2.519,-5.627 -5.627,-5.627 -3.107,0 -5.626,2.519 -5.626,5.627 0,3.108 2.519,5.627 5.626,5.627 C -2.519,5.627 0,3.108 0,0"
             style="fill:#000000;fill-opacity:1;fill-rule:nonzero;stroke:none"
             id="path276" /></g><g
           id="g278"
           transform="translate(394.1271,244.9677)"><path
             d="m 0,0 c 0,-3.108 -2.519,-5.627 -5.627,-5.627 -3.107,0 -5.626,2.519 -5.626,5.627 0,3.108 2.519,5.627 5.626,5.627 C -2.519,5.627 0,3.108 0,0"
             style="fill:#000000;fill-opacity:1;fill-rule:nonzero;stroke:none"
             id="path280" /></g><g
           id="g282"
           transform="translate(390.2104,254.4086)"><path
             d="m 0,0 c 0,-3.108 -2.519,-5.627 -5.627,-5.627 -3.107,0 -5.626,2.519 -5.626,5.627 0,3.108 2.519,5.627 5.626,5.627 C -2.519,5.627 0,3.108 0,0"
             style="fill:#000000;fill-opacity:1;fill-rule:nonzero;stroke:none"
             id="path284" /></g><g
           id="g286"
           transform="translate(362.2427,254.0965)"><path
             d="m 0,0 c -1.055,-4.05 -5.193,-6.478 -9.243,-5.424 -4.05,1.055 -6.478,5.193 -5.424,9.243 1.055,4.05 5.193,6.479 9.243,5.424 C -1.374,8.188 1.055,4.05 0,0 Z"
             style="fill:none;stroke:#1d1d1b;stroke-width:1;stroke-linecap:butt;stroke-linejoin:miter;stroke-miterlimit:10;stroke-dasharray:none;stroke-opacity:1"
             id="path288" /></g><g
           id="g290"
           transform="translate(381.9489,248.965)"><path
             d="m 0,0 c -1.055,-4.05 -5.193,-6.478 -9.243,-5.424 -4.05,1.055 -6.478,5.193 -5.424,9.243 1.055,4.05 5.193,6.479 9.243,5.424 C -1.374,8.188 1.055,4.05 0,0 Z"
             style="fill:none;stroke:#1d1d1b;stroke-width:1;stroke-linecap:butt;stroke-linejoin:miter;stroke-miterlimit:10;stroke-dasharray:none;stroke-opacity:1"
             id="path292" /></g><g
           id="g294"
           transform="translate(362.4858,255.8732)"><path
             d="M 0,0 5.245,-1.366"
             style="fill:none;stroke:#1d1d1b;stroke-width:1;stroke-linecap:butt;stroke-linejoin:miter;stroke-miterlimit:10;stroke-dasharray:none;stroke-opacity:1"
             id="path296" /></g><g
           id="g298"
           transform="translate(349.2751,261.0753)"><path
             d="m 0,0 3.448,10.505 c 0.205,0.552 0.795,0.859 1.365,0.708 l 0.412,-0.999"
             style="fill:none;stroke:#1d1d1b;stroke-width:1;stroke-linecap:butt;stroke-linejoin:miter;stroke-miterlimit:10;stroke-dasharray:none;stroke-opacity:1"
             id="path300" /></g><g
           id="g302"
           transform="translate(382.1953,248.9663)"><path
             d="M 0,0 5.97,0.356"
             style="fill:none;stroke:#1d1d1b;stroke-width:1;stroke-linecap:butt;stroke-linejoin:miter;stroke-miterlimit:10;stroke-dasharray:none;stroke-opacity:1"
             id="path304" /></g><g
           id="g306"
           transform="translate(301.0465,231.2397)"><path
             d="m 0,0 c 0,0 0.389,14.163 -11.869,21.854 l -1.255,-1.882 -1.367,1.009 -0.852,-1.278 -0.169,0.144 c -1.869,1.591 -4.648,1.591 -6.454,-0.07 -0.027,-0.024 -0.052,-0.048 -0.078,-0.072 z"
             style="fill:#ffffff;fill-opacity:1;fill-rule:nonzero;stroke:none"
             id="path308" /></g><g
           id="g310"
           transform="translate(301.0465,231.2397)"><path
             d="m 0,0 c 0,0 12.319,7 24.868,-0.205 l -1.071,-1.993 1.533,-0.733 -0.727,-1.352 0.206,-0.082 c 2.283,-0.901 3.589,-3.355 2.972,-5.729 -0.009,-0.035 -0.018,-0.069 -0.027,-0.103 z"
             style="fill:#ffffff;fill-opacity:1;fill-rule:nonzero;stroke:none"
             id="path312" /></g><g
           id="g314"
           transform="translate(329.0128,220.9896)"><path
             d="m 0,0 -23.632,8.967 -22.889,-36.652 23.218,-8.638 c 0.901,-0.335 1.914,-0.002 2.441,0.801 l 21.67,33.03 C 1.398,-1.594 1.004,-0.381 0,0"
             style="fill:#ff9999;fill-opacity:1;fill-rule:nonzero;stroke:none"
             id="path316" /></g><g
           id="g318"
           transform="translate(278.8834,251.1902)"><path
             d="m 0,0 19.385,-16.962 -21.596,-37.429 -23.583,17.519 c -0.627,0.555 -0.786,1.47 -0.384,2.205 L -1.986,-0.352 C -1.589,0.373 -0.622,0.545 0,0"
             style="fill:#ff9999;fill-opacity:1;fill-rule:nonzero;stroke:none"
             id="path320" /></g><g
           id="g322"
           transform="translate(305.3805,229.957)"><path
             d="m 0,0 -22.888,-36.652 c 0,0 -4.073,-0.713 -5.82,3.494 L -7.113,4.271 C -5.339,2.031 -2.811,0.513 0,0"
             style="fill:#ff8383;fill-opacity:1;fill-rule:nonzero;stroke:none"
             id="path324" /></g><g
           id="g326"
           transform="translate(281.0441,305.7596)"><path
             d="m 0,0 22.832,12.988 c 0.617,0.35 0.972,1.029 0.908,1.735 l -3.866,43.051 c -0.119,1.327 -1.581,2.075 -2.727,1.396 L -3.178,47.118 c -0.265,-0.157 -0.565,-0.244 -0.873,-0.252 l -30.842,-0.874 c -1.015,-0.028 -1.809,-0.887 -1.756,-1.902 l 2.246,-43.688 c 0.051,-0.987 0.882,-1.75 1.87,-1.717 l 31.699,1.08 C -0.541,-0.226 -0.255,-0.145 0,0"
             style="fill:#ff8383;fill-opacity:1;fill-rule:nonzero;stroke:none"
             id="path328" /></g><g
           id="g330"
           transform="translate(279.9362,306.414)"><path
             d="m 0,0 -29.747,-1.247 c -0.827,-0.022 -1.522,0.617 -1.569,1.443 l -2.432,42.81 c -0.043,0.753 0.532,1.399 1.286,1.444 l 29.988,1.774 z"
             style="fill:#dadada;fill-opacity:1;fill-rule:nonzero;stroke:none"
             id="path332" /></g><g
           id="g334"
           transform="translate(279.9362,306.414)"><path
             d="m 0,0 c 0,0 8.489,10.033 20.484,11.869 0.81,0.123 1.402,0.828 1.377,1.647 l -1.293,42.518 c 0,0 -5.722,0.104 -10.149,4.269 L -2.474,46.224 Z"
             style="fill:#dadada;fill-opacity:1;fill-rule:nonzero;stroke:none"
             id="path336" /></g><g
           id="g338"
           transform="translate(279.9362,306.414)"><path
             d="m 0,0 -27.369,-0.356 c -0.741,-0.01 -1.357,0.568 -1.395,1.307 l -2.203,42.933 c -0.029,0.573 0.296,1.107 0.822,1.333 2.776,1.196 12.166,4.376 27.671,1.007 z"
             style="fill:#f6f6f6;fill-opacity:1;fill-rule:nonzero;stroke:none"
             id="path340" /></g><g
           id="g342"
           transform="translate(279.9362,306.414)"><path
             d="m 0,0 c 0,0 1.504,11.453 12.944,16.508 0.654,0.289 1.056,0.961 0.996,1.674 l -3.521,42.121 c 0,0 -7.332,-2.22 -12.893,-14.079 z"
             style="fill:#ffffff;fill-opacity:1;fill-rule:nonzero;stroke:none"
             id="path344" /></g><g
           id="g346"
           transform="translate(173.0884,270.1865)"><path
             d="M 0,0 C 20.608,-4.214 42.709,-13.414 62.153,-31.686"
             style="fill:none;stroke:#f6f6f6;stroke-width:2;stroke-linecap:round;stroke-linejoin:miter;stroke-miterlimit:10;stroke-dasharray:none;stroke-opacity:1"
             id="path348" /></g><g
           id="g350"
           transform="translate(121.2439,272.1153)"><path
             d="M 0,0 C 9.797,1.14 22.353,1.761 36.196,0.413"
             style="fill:none;stroke:#f6f6f6;stroke-width:2;stroke-linecap:round;stroke-linejoin:miter;stroke-miterlimit:10;stroke-dasharray:none;stroke-opacity:1"
             id="path352" /></g><g
           id="g354"
           transform="translate(100.2505,268.221)"><path
             d="M 0,0 C 0,0 3.383,0.999 9.25,2.111"
             style="fill:none;stroke:#f6f6f6;stroke-width:2;stroke-linecap:round;stroke-linejoin:miter;stroke-miterlimit:10;stroke-dasharray:none;stroke-opacity:1"
             id="path356" /></g><g
           id="g358"
           transform="translate(223.5078,279.2598)"><path
             d="M 0,0 C 5.842,-3.814 11.566,-8.263 17.076,-13.441"
             style="fill:none;stroke:#f6f6f6;stroke-width:2;stroke-linecap:round;stroke-linejoin:miter;stroke-miterlimit:10;stroke-dasharray:none;stroke-opacity:1"
             id="path360" /></g><g
           id="g362"
           transform="translate(193.9533,293.3941)"><path
             d="M 0,0 C 7.904,-2.598 15.873,-6.039 23.689,-10.536"
             style="fill:none;stroke:#f6f6f6;stroke-width:2;stroke-linecap:round;stroke-linejoin:miter;stroke-miterlimit:10;stroke-dasharray:none;stroke-opacity:1"
             id="path364" /></g><g
           id="g366"
           transform="translate(129.6124,299.7586)"><path
             d="M 0,0 C 10.182,1.006 22.897,1.368 36.74,-0.301"
             style="fill:none;stroke:#f6f6f6;stroke-width:2;stroke-linecap:round;stroke-linejoin:miter;stroke-miterlimit:10;stroke-dasharray:none;stroke-opacity:1"
             id="path368" /></g><g
           id="g370"
           transform="translate(105.5926,295.5388)"><path
             d="M 0,0 C 0,0 4.03,1.19 10.92,2.418"
             style="fill:none;stroke:#f6f6f6;stroke-width:2;stroke-linecap:round;stroke-linejoin:miter;stroke-miterlimit:10;stroke-dasharray:none;stroke-opacity:1"
             id="path372" /></g><g
           id="g374"
           transform="translate(394.8513,431.5467)"><path
             d="m 0,0 c 0,-24.472 -19.839,-44.311 -44.311,-44.311 -24.472,0 -44.311,19.839 -44.311,44.311 0,24.472 19.839,44.311 44.311,44.311 C -19.839,44.311 0,24.472 0,0"
             style="fill:#fff57d;fill-opacity:1;fill-rule:nonzero;stroke:none"
             id="path376" /></g><g
           id="g378"
           transform="translate(210.328,410)"><path
             d="m 0,0 h -80.505 c 0,0 4.025,9.714 9.057,10.116 5.031,0.403 6.44,-2.69 8.05,-2.388 1.61,0.302 4.227,8.315 10.667,8.718 6.441,0.403 8.956,-5.604 12.478,-6.71 3.523,-1.107 10.466,-0.488 15.9,8.267 5.434,8.755 15.739,-0.647 16.001,-7.391 C -7.95,0.247 7.849,6 7.849,0 Z"
             style="fill:#f6f6f6;fill-opacity:1;fill-rule:nonzero;stroke:none"
             id="path380" /></g><g
           id="g382"
           transform="translate(33.672,233)"><path
             d="m 0,0 h 80.505 c 0,0 -4.025,9.714 -9.057,10.117 -5.031,0.402 -6.44,-2.691 -8.05,-2.389 -1.61,0.302 -4.227,8.316 -10.667,8.718 C 46.29,16.849 43.775,10.842 40.253,9.736 36.73,8.629 29.787,9.248 24.353,18.003 18.919,26.758 8.614,17.356 8.352,10.612 7.95,0.247 -7.849,6 -7.849,0 Z"
             style="fill:#f6f6f6;fill-opacity:1;fill-rule:nonzero;stroke:none"
             id="path384" /></g><g
           id="g386"
           transform="translate(393.672,330)"><path
             d="m 0,0 h 80.505 c 0,0 -4.025,9.714 -9.057,10.116 -5.031,0.403 -6.44,-2.69 -8.05,-2.388 -1.61,0.302 -4.227,8.315 -10.667,8.718 C 46.29,16.849 43.775,10.842 40.253,9.736 36.73,8.629 29.787,9.248 24.353,18.003 18.919,26.758 8.614,17.356 8.352,10.612 7.95,0.247 -7.849,6 -7.849,0 Z"
             style="fill:#f6f6f6;fill-opacity:1;fill-rule:nonzero;stroke:none"
             id="path388" /></g></g></g><g
       id="g390"><g
         id="g392"
         clip-path="url(#clipPath396)"><g
           id="g398"
           transform="translate(183.0741,21.0611)"><path
             d="m 0,0 c 0,-0.404 0.063,-0.747 0.188,-1.03 0.126,-0.284 0.297,-0.497 0.515,-0.64 0.218,-0.144 0.456,-0.217 0.714,-0.217 0.262,0 0.501,0.069 0.717,0.205 0.216,0.136 0.389,0.346 0.518,0.627 C 2.781,-0.773 2.845,-0.421 2.845,0 2.845,0.396 2.781,0.737 2.652,1.023 2.523,1.308 2.349,1.526 2.129,1.677 1.909,1.827 1.668,1.902 1.406,1.902 1.134,1.902 0.891,1.825 0.676,1.671 0.462,1.517 0.295,1.295 0.177,1.006 0.059,0.717 0,0.382 0,0 m 2.927,-2.186 v 0.148 C 2.727,-2.267 2.53,-2.454 2.336,-2.597 2.142,-2.741 1.931,-2.85 1.703,-2.924 1.476,-3 1.229,-3.036 0.96,-3.036 c -0.357,0 -0.687,0.075 -0.99,0.226 -0.304,0.15 -0.566,0.366 -0.788,0.646 -0.222,0.28 -0.39,0.608 -0.504,0.986 -0.114,0.379 -0.172,0.787 -0.172,1.227 0,0.93 0.228,1.656 0.682,2.176 C -0.358,2.744 0.24,3.004 0.981,3.004 1.41,3.004 1.772,2.93 2.066,2.783 2.36,2.636 2.647,2.409 2.927,2.105 v 2.196 c 0,0.306 0.061,0.536 0.183,0.692 0.121,0.157 0.295,0.235 0.521,0.235 0.225,0 0.398,-0.072 0.52,-0.216 C 4.273,4.868 4.334,4.658 4.334,4.377 v -6.563 c 0,-0.283 -0.065,-0.496 -0.197,-0.638 -0.13,-0.141 -0.299,-0.212 -0.506,-0.212 -0.204,0 -0.372,0.073 -0.505,0.22 -0.133,0.148 -0.199,0.358 -0.199,0.63"
             style="fill:#ffffff;fill-opacity:1;fill-rule:nonzero;stroke:none"
             id="path400" /></g><g
           id="g402"
           transform="translate(189.653,21.5296)"><path
             d="M 0,0 H 2.699 C 2.663,0.509 2.525,0.89 2.287,1.142 2.049,1.395 1.736,1.521 1.347,1.521 0.976,1.521 0.671,1.393 0.434,1.137 0.195,0.881 0.051,0.502 0,0 M 2.911,-0.845 H 0 c 0.004,-0.338 0.072,-0.636 0.205,-0.894 0.132,-0.258 0.308,-0.452 0.528,-0.583 0.22,-0.131 0.463,-0.196 0.728,-0.196 0.178,0 0.34,0.02 0.488,0.062 0.147,0.043 0.29,0.107 0.428,0.197 0.138,0.088 0.265,0.184 0.381,0.286 0.116,0.102 0.267,0.241 0.453,0.415 0.076,0.065 0.185,0.098 0.327,0.098 0.153,0 0.276,-0.043 0.37,-0.126 C 4.003,-1.67 4.051,-1.787 4.051,-1.94 4.051,-2.075 3.997,-2.231 3.893,-2.412 3.786,-2.592 3.628,-2.764 3.415,-2.93 3.202,-3.095 2.936,-3.232 2.614,-3.341 2.292,-3.45 1.923,-3.505 1.504,-3.505 c -0.955,0 -1.699,0.273 -2.229,0.818 -0.53,0.545 -0.796,1.285 -0.796,2.218 0,0.44 0.065,0.849 0.196,1.224 0.132,0.377 0.322,0.699 0.573,0.968 0.25,0.269 0.559,0.475 0.927,0.619 0.366,0.143 0.774,0.214 1.221,0.214 0.581,0 1.08,-0.121 1.495,-0.367 C 3.308,1.944 3.62,1.627 3.827,1.238 4.033,0.849 4.137,0.452 4.137,0.05 4.137,-0.325 4.03,-0.567 3.816,-0.679 3.602,-0.789 3.3,-0.845 2.911,-0.845"
             style="fill:#ffffff;fill-opacity:1;fill-rule:nonzero;stroke:none"
             id="path404" /></g><g
           id="g406"
           transform="translate(199.3447,19.9715)"><path
             d="m 0,0 c 0,-0.411 -0.099,-0.763 -0.3,-1.055 -0.199,-0.293 -0.495,-0.515 -0.886,-0.666 -0.39,-0.151 -0.865,-0.226 -1.425,-0.226 -0.534,0 -0.992,0.082 -1.374,0.246 -0.381,0.163 -0.663,0.368 -0.844,0.612 -0.182,0.247 -0.273,0.492 -0.273,0.74 0,0.163 0.058,0.303 0.174,0.419 0.117,0.116 0.264,0.174 0.442,0.174 0.156,0 0.276,-0.038 0.359,-0.114 0.084,-0.076 0.164,-0.184 0.24,-0.321 0.153,-0.266 0.336,-0.463 0.548,-0.595 0.213,-0.13 0.502,-0.196 0.87,-0.196 0.298,0 0.542,0.067 0.733,0.199 0.191,0.133 0.286,0.285 0.286,0.456 0,0.261 -0.099,0.451 -0.297,0.571 -0.198,0.12 -0.524,0.235 -0.979,0.345 -0.512,0.126 -0.929,0.26 -1.251,0.4 -0.321,0.139 -0.578,0.324 -0.771,0.553 -0.192,0.229 -0.289,0.511 -0.289,0.845 0,0.298 0.089,0.58 0.267,0.845 0.179,0.265 0.441,0.477 0.789,0.635 0.346,0.158 0.765,0.238 1.255,0.238 0.386,0 0.732,-0.04 1.039,-0.121 0.307,-0.079 0.564,-0.187 0.769,-0.322 0.205,-0.134 0.361,-0.283 0.468,-0.446 0.107,-0.164 0.161,-0.323 0.161,-0.48 0,-0.171 -0.057,-0.311 -0.171,-0.42 -0.115,-0.108 -0.277,-0.164 -0.489,-0.164 -0.152,0 -0.282,0.044 -0.389,0.132 -0.107,0.087 -0.23,0.217 -0.368,0.392 -0.113,0.145 -0.245,0.262 -0.398,0.349 -0.153,0.087 -0.36,0.131 -0.622,0.131 -0.269,0 -0.492,-0.057 -0.67,-0.172 C -3.574,2.87 -3.663,2.727 -3.663,2.556 -3.663,2.4 -3.598,2.272 -3.467,2.172 -3.336,2.072 -3.16,1.989 -2.938,1.924 -2.716,1.859 -2.411,1.779 -2.022,1.684 -1.561,1.571 -1.184,1.436 -0.891,1.281 -0.599,1.125 -0.377,0.94 -0.226,0.727 -0.075,0.514 0,0.272 0,0"
             style="fill:#ffffff;fill-opacity:1;fill-rule:nonzero;stroke:none"
             id="path408" /></g><g
           id="g410"
           transform="translate(201.6012,23.2307)"><path
             d="m 0,0 v -4.301 c 0,-0.298 -0.071,-0.524 -0.213,-0.676 -0.142,-0.153 -0.321,-0.229 -0.54,-0.229 -0.218,0 -0.395,0.078 -0.531,0.235 -0.137,0.156 -0.204,0.379 -0.204,0.67 v 4.258 c 0,0.294 0.067,0.516 0.204,0.665 0.136,0.149 0.313,0.223 0.531,0.223 0.219,0 0.398,-0.074 0.54,-0.223 C -0.071,0.473 0,0.265 0,0 m -0.736,1.537 c -0.207,0 -0.384,0.064 -0.532,0.191 -0.147,0.127 -0.22,0.307 -0.22,0.54 0,0.211 0.075,0.384 0.226,0.52 0.151,0.137 0.326,0.205 0.526,0.205 0.193,0 0.363,-0.062 0.512,-0.186 C -0.075,2.684 0,2.504 0,2.268 0,2.038 -0.073,1.86 -0.219,1.731 -0.364,1.602 -0.536,1.537 -0.736,1.537"
             style="fill:#ffffff;fill-opacity:1;fill-rule:nonzero;stroke:none"
             id="path412" /></g><g
           id="g414"
           transform="translate(203.8084,21.0992)"><path
             d="m 0,0 c 0,-0.603 0.131,-1.059 0.395,-1.368 0.263,-0.31 0.604,-0.464 1.022,-0.464 0.247,0 0.481,0.067 0.7,0.199 0.221,0.133 0.399,0.333 0.538,0.6 0.137,0.267 0.207,0.591 0.207,0.973 0,0.606 -0.134,1.08 -0.401,1.417 C 2.194,1.695 1.842,1.864 1.406,1.864 0.98,1.864 0.64,1.702 0.384,1.379 0.128,1.056 0,0.596 0,0 m 4.312,1.886 v -4.322 c 0,-0.495 -0.053,-0.92 -0.159,-1.277 C 4.049,-4.068 3.879,-4.363 3.646,-4.595 3.414,-4.827 3.11,-5.001 2.734,-5.113 2.358,-5.226 1.89,-5.282 1.33,-5.282 c -0.513,0 -0.97,0.072 -1.374,0.215 -0.403,0.144 -0.713,0.329 -0.932,0.556 -0.218,0.227 -0.327,0.461 -0.327,0.701 0,0.181 0.061,0.33 0.185,0.444 0.124,0.115 0.273,0.172 0.447,0.172 0.218,0 0.409,-0.097 0.573,-0.289 0.079,-0.098 0.162,-0.198 0.247,-0.298 0.086,-0.1 0.181,-0.185 0.284,-0.256 0.104,-0.07 0.228,-0.123 0.373,-0.158 0.146,-0.033 0.313,-0.051 0.502,-0.051 0.385,0 0.684,0.053 0.897,0.161 0.213,0.107 0.362,0.257 0.447,0.45 0.085,0.191 0.135,0.398 0.15,0.618 0.015,0.22 0.025,0.573 0.032,1.061 -0.229,-0.321 -0.493,-0.565 -0.793,-0.732 -0.3,-0.167 -0.657,-0.25 -1.071,-0.25 -0.498,0 -0.933,0.127 -1.306,0.382 -0.372,0.254 -0.658,0.61 -0.858,1.068 -0.2,0.458 -0.299,0.986 -0.299,1.586 0,0.447 0.06,0.851 0.182,1.21 0.122,0.361 0.295,0.664 0.52,0.911 0.226,0.247 0.486,0.433 0.78,0.559 0.294,0.125 0.618,0.187 0.97,0.187 0.422,0 0.787,-0.081 1.096,-0.242 C 2.364,2.561 2.651,2.307 2.916,1.962 v 0.203 c 0,0.257 0.064,0.457 0.191,0.599 0.127,0.142 0.291,0.213 0.491,0.213 0.287,0 0.477,-0.094 0.572,-0.281 0.094,-0.187 0.142,-0.457 0.142,-0.81"
             style="fill:#ffffff;fill-opacity:1;fill-rule:nonzero;stroke:none"
             id="path416" /></g><g
           id="g418"
           transform="translate(210.4855,23.2525)"><path
             d="M 0,0 V -0.18 C 0.261,0.165 0.548,0.419 0.858,0.581 1.169,0.742 1.526,0.823 1.929,0.823 2.322,0.823 2.673,0.738 2.982,0.567 3.29,0.396 3.522,0.154 3.674,-0.158 3.772,-0.34 3.836,-0.536 3.865,-0.747 3.894,-0.958 3.909,-1.226 3.909,-1.554 v -2.768 c 0,-0.299 -0.069,-0.524 -0.205,-0.677 -0.136,-0.152 -0.313,-0.229 -0.531,-0.229 -0.222,0 -0.402,0.078 -0.54,0.235 -0.139,0.156 -0.207,0.38 -0.207,0.671 v 2.48 c 0,0.49 -0.069,0.866 -0.205,1.125 -0.136,0.26 -0.408,0.39 -0.815,0.39 -0.265,0 -0.507,-0.079 -0.725,-0.237 C 0.463,-0.723 0.303,-0.94 0.202,-1.216 0.129,-1.438 0.092,-1.851 0.092,-2.458 v -1.864 c 0,-0.302 -0.07,-0.529 -0.209,-0.68 -0.14,-0.151 -0.321,-0.226 -0.542,-0.226 -0.215,0 -0.391,0.078 -0.53,0.235 -0.137,0.156 -0.207,0.38 -0.207,0.671 v 4.3 c 0,0.284 0.062,0.496 0.186,0.636 0.123,0.139 0.292,0.209 0.506,0.209 0.132,0 0.25,-0.031 0.355,-0.093 0.105,-0.062 0.19,-0.154 0.254,-0.277 C -0.032,0.329 0,0.178 0,0"
             style="fill:#ffffff;fill-opacity:1;fill-rule:nonzero;stroke:none"
             id="path420" /></g><g
           id="g422"
           transform="translate(216.6284,21.5296)"><path
             d="M 0,0 H 2.698 C 2.662,0.509 2.525,0.89 2.287,1.142 2.049,1.395 1.735,1.521 1.346,1.521 0.976,1.521 0.671,1.393 0.433,1.137 0.195,0.881 0.051,0.502 0,0 M 2.911,-0.845 H 0 c 0.004,-0.338 0.072,-0.636 0.205,-0.894 0.132,-0.258 0.308,-0.452 0.528,-0.583 0.219,-0.131 0.462,-0.196 0.728,-0.196 0.178,0 0.34,0.02 0.488,0.062 0.147,0.043 0.289,0.107 0.428,0.197 0.138,0.088 0.265,0.184 0.382,0.286 0.115,0.102 0.266,0.241 0.452,0.415 0.076,0.065 0.185,0.098 0.327,0.098 0.152,0 0.276,-0.043 0.37,-0.126 C 4.003,-1.67 4.05,-1.787 4.05,-1.94 4.05,-2.075 3.998,-2.231 3.892,-2.412 3.786,-2.592 3.628,-2.764 3.415,-2.93 3.202,-3.095 2.936,-3.232 2.614,-3.341 2.292,-3.45 1.922,-3.505 1.504,-3.505 c -0.955,0 -1.699,0.273 -2.229,0.818 -0.531,0.545 -0.796,1.285 -0.796,2.218 0,0.44 0.065,0.849 0.196,1.224 0.131,0.377 0.322,0.699 0.573,0.968 0.25,0.269 0.559,0.475 0.926,0.619 0.367,0.143 0.775,0.214 1.222,0.214 0.581,0 1.079,-0.121 1.495,-0.367 C 3.308,1.944 3.619,1.627 3.827,1.238 4.033,0.849 4.137,0.452 4.137,0.05 4.137,-0.325 4.03,-0.567 3.816,-0.679 3.602,-0.789 3.3,-0.845 2.911,-0.845"
             style="fill:#ffffff;fill-opacity:1;fill-rule:nonzero;stroke:none"
             id="path424" /></g><g
           id="g426"
           transform="translate(222.6785,21.0611)"><path
             d="m 0,0 c 0,-0.404 0.062,-0.747 0.188,-1.03 0.125,-0.284 0.297,-0.497 0.516,-0.64 0.217,-0.144 0.455,-0.217 0.713,-0.217 0.262,0 0.501,0.069 0.717,0.205 0.216,0.136 0.389,0.346 0.518,0.627 C 2.781,-0.773 2.845,-0.421 2.845,0 2.845,0.396 2.781,0.737 2.652,1.023 2.523,1.308 2.349,1.526 2.129,1.677 1.908,1.827 1.668,1.902 1.406,1.902 1.134,1.902 0.89,1.825 0.676,1.671 0.462,1.517 0.295,1.295 0.177,1.006 0.059,0.717 0,0.382 0,0 m 2.927,-2.186 v 0.148 C 2.727,-2.267 2.53,-2.454 2.336,-2.597 2.141,-2.741 1.931,-2.85 1.703,-2.924 1.477,-3 1.228,-3.036 0.96,-3.036 c -0.357,0 -0.687,0.075 -0.99,0.226 -0.303,0.15 -0.566,0.366 -0.788,0.646 -0.222,0.28 -0.389,0.608 -0.504,0.986 -0.114,0.379 -0.172,0.787 -0.172,1.227 0,0.93 0.227,1.656 0.682,2.176 C -0.358,2.744 0.24,3.004 0.981,3.004 1.41,3.004 1.772,2.93 2.066,2.783 2.36,2.636 2.648,2.409 2.927,2.105 v 2.196 c 0,0.306 0.061,0.536 0.183,0.692 0.121,0.157 0.295,0.235 0.521,0.235 0.225,0 0.398,-0.072 0.52,-0.216 C 4.273,4.868 4.334,4.658 4.334,4.377 v -6.563 c 0,-0.283 -0.065,-0.496 -0.196,-0.638 -0.131,-0.141 -0.3,-0.212 -0.507,-0.212 -0.204,0 -0.372,0.073 -0.505,0.22 -0.133,0.148 -0.199,0.358 -0.199,0.63"
             style="fill:#ffffff;fill-opacity:1;fill-rule:nonzero;stroke:none"
             id="path428" /></g><g
           id="g430"
           transform="translate(231.759,21.0173)"><path
             d="m 0,0 c 0,-0.592 0.135,-1.047 0.406,-1.365 0.271,-0.318 0.626,-0.478 1.066,-0.478 0.374,0 0.697,0.163 0.967,0.488 0.271,0.326 0.406,0.792 0.406,1.399 0,0.392 -0.055,0.731 -0.168,1.014 C 2.564,1.341 2.404,1.56 2.197,1.715 1.99,1.869 1.748,1.946 1.472,1.946 1.188,1.946 0.935,1.869 0.714,1.715 0.492,1.56 0.318,1.337 0.191,1.044 0.064,0.752 0,0.404 0,0 M -0.071,4.421 V 2.148 c 0.28,0.291 0.565,0.514 0.856,0.668 0.291,0.154 0.651,0.231 1.08,0.231 0.494,0 0.927,-0.117 1.3,-0.35 C 3.537,2.461 3.826,2.121 4.031,1.676 4.236,1.232 4.34,0.703 4.34,0.092 4.34,-0.358 4.282,-0.771 4.168,-1.147 4.053,-1.523 3.887,-1.85 3.669,-2.125 3.451,-2.402 3.186,-2.616 2.876,-2.767 2.565,-2.917 2.222,-2.992 1.848,-2.992 1.619,-2.992 1.403,-2.965 1.202,-2.911 1,-2.856 0.828,-2.785 0.687,-2.695 0.546,-2.607 0.425,-2.515 0.324,-2.42 0.225,-2.326 0.092,-2.184 -0.071,-1.995 v -0.147 c 0,-0.28 -0.067,-0.492 -0.202,-0.636 -0.134,-0.143 -0.305,-0.214 -0.512,-0.214 -0.211,0 -0.379,0.071 -0.504,0.214 -0.126,0.144 -0.188,0.356 -0.188,0.636 v 6.498 c 0,0.302 0.061,0.53 0.182,0.684 0.122,0.154 0.292,0.231 0.51,0.231 0.229,0 0.405,-0.073 0.529,-0.22 0.123,-0.148 0.185,-0.357 0.185,-0.63"
             style="fill:#ffffff;fill-opacity:1;fill-rule:nonzero;stroke:none"
             id="path432" /></g><g
           id="g434"
           transform="translate(238.0278,17.8394)"><path
             d="m 0,0 0.136,0.333 -1.831,4.612 c -0.113,0.264 -0.17,0.457 -0.17,0.577 0,0.128 0.033,0.245 0.099,0.354 0.065,0.109 0.155,0.197 0.269,0.262 0.115,0.066 0.234,0.099 0.358,0.099 0.214,0 0.375,-0.069 0.485,-0.205 0.109,-0.136 0.205,-0.331 0.289,-0.586 L 0.894,1.783 2.088,5.19 C 2.182,5.465 2.267,5.682 2.344,5.839 2.42,5.995 2.501,6.1 2.586,6.154 2.671,6.209 2.793,6.237 2.949,6.237 3.062,6.237 3.17,6.207 3.273,6.146 3.377,6.086 3.457,6.006 3.513,5.904 3.569,5.802 3.598,5.695 3.598,5.582 3.583,5.513 3.56,5.415 3.527,5.288 3.494,5.161 3.454,5.031 3.407,4.901 L 1.466,-0.18 C 1.299,-0.627 1.135,-0.977 0.975,-1.231 0.816,-1.486 0.604,-1.682 0.34,-1.818 0.077,-1.954 -0.278,-2.022 -0.725,-2.022 c -0.436,0 -0.763,0.047 -0.981,0.141 -0.219,0.095 -0.327,0.268 -0.327,0.518 0,0.171 0.051,0.303 0.155,0.396 0.103,0.092 0.257,0.139 0.46,0.139 0.08,0 0.159,-0.011 0.235,-0.033 0.094,-0.022 0.176,-0.033 0.245,-0.033 0.171,0 0.305,0.025 0.404,0.077 0.098,0.05 0.186,0.138 0.264,0.264 0.078,0.125 0.168,0.31 0.27,0.553"
             style="fill:#ffffff;fill-opacity:1;fill-rule:nonzero;stroke:none"
             id="path436" /></g><g
           id="g438"
           transform="translate(259.5865,23.9469)"><path
             d="m 0,0 h 0.355 v 0.447 c 0,0.467 0.057,0.836 0.176,1.112 0.117,0.274 0.319,0.474 0.601,0.6 0.281,0.124 0.667,0.187 1.157,0.187 0.872,0 1.304,-0.211 1.304,-0.64 C 3.593,1.569 3.548,1.451 3.455,1.353 3.367,1.256 3.259,1.206 3.135,1.206 3.078,1.206 2.976,1.217 2.833,1.24 2.697,1.26 2.573,1.272 2.475,1.272 2.207,1.272 2.035,1.192 1.956,1.034 1.883,0.876 1.844,0.65 1.844,0.354 V 0 h 0.363 c 0.569,0 0.85,-0.17 0.85,-0.514 0,-0.24 -0.073,-0.396 -0.225,-0.462 C 2.681,-1.041 2.473,-1.074 2.207,-1.074 H 1.844 v -3.943 c 0,-0.294 -0.069,-0.517 -0.212,-0.671 -0.139,-0.156 -0.318,-0.233 -0.541,-0.233 -0.211,0 -0.385,0.077 -0.527,0.233 -0.14,0.154 -0.209,0.377 -0.209,0.671 v 3.943 h -0.41 c -0.223,0 -0.392,0.048 -0.513,0.15 -0.12,0.098 -0.18,0.23 -0.18,0.389 C -0.748,-0.176 -0.499,0 0,0"
             style="fill:#ffffff;fill-opacity:1;fill-rule:nonzero;stroke:none"
             id="path440" /></g><g
           id="g442"
           transform="translate(264.4588,20.1738)"><path
             d="m 0,0 v -1.244 c 0,-0.301 -0.076,-0.528 -0.215,-0.677 -0.142,-0.153 -0.32,-0.227 -0.538,-0.227 -0.219,0 -0.394,0.075 -0.532,0.23 -0.135,0.151 -0.206,0.377 -0.206,0.674 v 4.145 c 0,0.669 0.241,1.004 0.723,1.004 0.249,0 0.427,-0.077 0.536,-0.234 0.109,-0.157 0.169,-0.387 0.182,-0.694 0.177,0.307 0.358,0.537 0.544,0.694 0.191,0.157 0.438,0.234 0.752,0.234 0.315,0 0.615,-0.077 0.91,-0.234 C 2.452,3.514 2.598,3.305 2.598,3.048 2.598,2.867 2.535,2.715 2.411,2.6 2.285,2.48 2.151,2.421 2.006,2.421 1.949,2.421 1.816,2.457 1.609,2.524 1.399,2.589 1.214,2.623 1.056,2.623 0.838,2.623 0.659,2.564 0.521,2.452 0.382,2.335 0.274,2.167 0.197,1.943 0.123,1.717 0.072,1.447 0.041,1.137 0.013,0.826 0,0.447 0,0"
             style="fill:#ffffff;fill-opacity:1;fill-rule:nonzero;stroke:none"
             id="path444" /></g><g
           id="g446"
           transform="translate(268.3884,21.5323)"><path
             d="M 0,0 H 2.698 C 2.662,0.508 2.527,0.889 2.289,1.14 2.049,1.394 1.738,1.519 1.347,1.519 0.976,1.519 0.672,1.393 0.433,1.135 0.196,0.879 0.05,0.501 0,0 M 2.912,-0.846 H 0 c 0.005,-0.338 0.071,-0.637 0.203,-0.895 0.136,-0.256 0.31,-0.451 0.531,-0.583 0.221,-0.131 0.461,-0.195 0.728,-0.195 0.179,0 0.34,0.019 0.488,0.064 0.146,0.039 0.29,0.106 0.428,0.195 0.139,0.088 0.264,0.183 0.381,0.287 0.116,0.101 0.268,0.239 0.453,0.413 0.077,0.065 0.186,0.099 0.326,0.099 0.155,0 0.277,-0.042 0.373,-0.127 0.095,-0.084 0.14,-0.201 0.14,-0.354 C 4.051,-2.077 4,-2.233 3.897,-2.412 3.789,-2.594 3.631,-2.766 3.417,-2.932 3.203,-3.096 2.936,-3.235 2.615,-3.342 2.294,-3.451 1.923,-3.506 1.507,-3.506 c -0.959,0 -1.701,0.271 -2.231,0.816 -0.53,0.546 -0.799,1.287 -0.799,2.22 0,0.44 0.067,0.848 0.2,1.225 0.129,0.378 0.32,0.698 0.573,0.968 0.25,0.271 0.557,0.476 0.925,0.619 0.366,0.143 0.773,0.215 1.222,0.215 0.58,0 1.079,-0.123 1.496,-0.37 C 3.308,1.944 3.624,1.626 3.828,1.237 4.035,0.846 4.139,0.452 4.139,0.047 4.139,-0.326 4.03,-0.568 3.816,-0.68 3.602,-0.791 3.301,-0.846 2.912,-0.846"
             style="fill:#ffffff;fill-opacity:1;fill-rule:nonzero;stroke:none"
             id="path448" /></g><g
           id="g450"
           transform="translate(274.5801,21.5323)"><path
             d="M 0,0 H 2.698 C 2.662,0.508 2.524,0.889 2.288,1.14 2.046,1.394 1.736,1.519 1.345,1.519 0.975,1.519 0.67,1.393 0.431,1.135 0.194,0.879 0.048,0.501 0,0 M 2.912,-0.846 H 0 c 0.003,-0.338 0.072,-0.637 0.203,-0.895 0.133,-0.256 0.31,-0.451 0.529,-0.583 0.22,-0.131 0.462,-0.195 0.73,-0.195 0.176,0 0.34,0.019 0.485,0.064 0.148,0.039 0.29,0.106 0.43,0.195 0.139,0.088 0.264,0.183 0.381,0.287 0.114,0.101 0.266,0.239 0.452,0.413 0.078,0.065 0.188,0.099 0.327,0.099 0.154,0 0.277,-0.042 0.373,-0.127 0.095,-0.084 0.138,-0.201 0.138,-0.354 0,-0.135 -0.05,-0.291 -0.157,-0.47 C 3.789,-2.594 3.63,-2.766 3.414,-2.932 3.202,-3.096 2.932,-3.235 2.613,-3.342 2.293,-3.451 1.92,-3.506 1.503,-3.506 c -0.957,0 -1.698,0.271 -2.231,0.816 -0.53,0.546 -0.797,1.287 -0.797,2.22 0,0.44 0.067,0.848 0.2,1.225 0.13,0.378 0.321,0.698 0.572,0.968 0.25,0.271 0.558,0.476 0.926,0.619 0.366,0.143 0.775,0.215 1.222,0.215 0.579,0 1.078,-0.123 1.5,-0.37 C 3.308,1.944 3.621,1.626 3.825,1.237 4.032,0.846 4.138,0.452 4.138,0.047 4.138,-0.326 4.028,-0.568 3.816,-0.68 3.6,-0.791 3.3,-0.846 2.912,-0.846"
             style="fill:#ffffff;fill-opacity:1;fill-rule:nonzero;stroke:none"
             id="path452" /></g><g
           id="g454"
           transform="translate(283.6695,21.0789)"><path
             d="m 0,0 c 0,0.393 -0.061,0.731 -0.18,1.012 -0.12,0.282 -0.287,0.497 -0.498,0.647 -0.21,0.151 -0.449,0.228 -0.707,0.228 -0.41,0 -0.757,-0.164 -1.038,-0.485 -0.282,-0.325 -0.424,-0.801 -0.424,-1.431 0,-0.589 0.14,-1.052 0.422,-1.381 0.28,-0.329 0.623,-0.492 1.04,-0.492 0.246,0 0.477,0.072 0.687,0.213 0.213,0.145 0.382,0.36 0.507,0.647 C -0.064,-0.754 0,-0.406 0,0 M -2.918,2.162 V 1.984 c 0.279,0.345 0.571,0.598 0.875,0.76 0.298,0.163 0.642,0.245 1.023,0.245 0.456,0 0.881,-0.119 1.267,-0.354 C 0.632,2.397 0.934,2.052 1.159,1.598 1.382,1.142 1.495,0.605 1.495,-0.017 1.495,-0.474 1.43,-0.896 1.302,-1.28 1.174,-1.663 0.994,-1.984 0.769,-2.244 0.543,-2.503 0.278,-2.704 -0.029,-2.844 -0.34,-2.983 -0.666,-3.053 -1.02,-3.053 c -0.424,0 -0.783,0.085 -1.071,0.257 -0.288,0.167 -0.563,0.421 -0.827,0.749 v -2.234 c 0,-0.652 -0.239,-0.981 -0.714,-0.981 -0.281,0 -0.464,0.084 -0.558,0.252 -0.086,0.171 -0.134,0.415 -0.134,0.741 v 6.424 c 0,0.284 0.062,0.493 0.184,0.636 C -4.016,2.928 -3.846,3 -3.632,3 -3.42,3 -3.25,2.928 -3.118,2.785 c 0.135,-0.146 0.2,-0.35 0.2,-0.623"
             style="fill:#ffffff;fill-opacity:1;fill-rule:nonzero;stroke:none"
             id="path456" /></g><g
           id="g458"
           transform="translate(287.4001,23.2341)"><path
             d="m 0,0 v -4.306 c 0,-0.296 -0.071,-0.521 -0.212,-0.672 -0.144,-0.155 -0.322,-0.23 -0.541,-0.23 -0.218,0 -0.393,0.077 -0.532,0.233 -0.134,0.159 -0.204,0.382 -0.204,0.669 v 4.263 c 0,0.293 0.07,0.514 0.204,0.663 0.139,0.152 0.314,0.225 0.532,0.225 0.219,0 0.397,-0.073 0.541,-0.225 C -0.071,0.471 0,0.263 0,0 m -0.737,1.537 c -0.208,0 -0.384,0.066 -0.53,0.193 -0.149,0.127 -0.222,0.305 -0.222,0.537 0,0.212 0.075,0.385 0.227,0.522 0.151,0.135 0.325,0.205 0.525,0.205 0.195,0 0.365,-0.062 0.513,-0.184 C -0.075,2.685 0,2.504 0,2.267 0,2.038 -0.073,1.859 -0.217,1.73 -0.363,1.603 -0.535,1.537 -0.737,1.537"
             style="fill:#ffffff;fill-opacity:1;fill-rule:nonzero;stroke:none"
             id="path460" /></g><g
           id="g462"
           transform="translate(292.1979,18.7052)"><path
             d="M 0,0 -1.311,2.161 -2.119,1.399 V 0.214 c 0,-0.287 -0.076,-0.506 -0.228,-0.66 -0.147,-0.156 -0.325,-0.233 -0.52,-0.233 -0.229,0 -0.41,0.075 -0.54,0.23 -0.13,0.151 -0.197,0.376 -0.197,0.673 v 6.35 c 0,0.329 0.066,0.58 0.19,0.754 0.128,0.175 0.313,0.259 0.547,0.259 0.229,0 0.409,-0.078 0.545,-0.236 0.134,-0.155 0.203,-0.386 0.203,-0.69 V 3.05 l 1.673,1.757 c 0.208,0.216 0.364,0.368 0.475,0.447 0.109,0.08 0.241,0.119 0.396,0.119 0.187,0 0.341,-0.059 0.468,-0.177 C 1.014,5.078 1.077,4.929 1.077,4.752 1.077,4.535 0.874,4.242 0.471,3.879 L -0.319,3.155 1.207,0.754 C 1.318,0.574 1.402,0.442 1.451,0.349 1.499,0.257 1.525,0.165 1.525,0.084 1.525,-0.153 1.459,-0.338 1.329,-0.476 1.201,-0.612 1.029,-0.679 0.821,-0.679 0.639,-0.679 0.498,-0.633 0.4,-0.532 0.303,-0.433 0.166,-0.255 0,0"
             style="fill:#ffffff;fill-opacity:1;fill-rule:nonzero;stroke:none"
             id="path464" /></g><g
           id="g466"
           transform="translate(295.4324,18.026)"><path
             d="m 0,0 c -0.225,0 -0.418,0.072 -0.582,0.219 -0.163,0.143 -0.246,0.347 -0.246,0.611 0,0.221 0.079,0.412 0.236,0.571 0.157,0.16 0.348,0.24 0.578,0.24 0.228,0 0.422,-0.08 0.587,-0.236 C 0.733,1.247 0.815,1.053 0.815,0.83 0.815,0.57 0.733,0.366 0.573,0.221 0.408,0.072 0.217,0 0,0"
             style="fill:#ffffff;fill-opacity:1;fill-rule:nonzero;stroke:none"
             id="path468" /></g><g
           id="g470"
           transform="translate(302.8353,19.8683)"><path
             d="m 0,0 c 0,-0.184 -0.055,-0.383 -0.167,-0.594 -0.11,-0.212 -0.28,-0.412 -0.508,-0.602 -0.227,-0.191 -0.512,-0.346 -0.858,-0.461 -0.345,-0.116 -0.735,-0.176 -1.166,-0.176 -0.922,0 -1.64,0.269 -2.156,0.804 -0.514,0.537 -0.773,1.257 -0.773,2.158 0,0.612 0.117,1.151 0.356,1.621 0.233,0.467 0.576,0.83 1.022,1.087 0.447,0.257 0.985,0.384 1.603,0.384 0.387,0 0.74,-0.056 1.064,-0.169 0.321,-0.112 0.592,-0.259 0.817,-0.436 0.222,-0.18 0.394,-0.369 0.511,-0.569 0.119,-0.202 0.177,-0.391 0.177,-0.567 0,-0.176 -0.065,-0.328 -0.197,-0.452 -0.135,-0.123 -0.296,-0.186 -0.482,-0.186 -0.125,0 -0.228,0.033 -0.31,0.096 -0.083,0.064 -0.175,0.166 -0.275,0.311 -0.182,0.274 -0.371,0.483 -0.571,0.619 -0.197,0.14 -0.448,0.208 -0.754,0.208 -0.437,0 -0.794,-0.171 -1.064,-0.515 C -4,2.219 -4.135,1.746 -4.135,1.152 c 0,-0.28 0.036,-0.539 0.105,-0.773 0.067,-0.234 0.167,-0.434 0.299,-0.599 0.132,-0.165 0.289,-0.29 0.474,-0.376 0.186,-0.088 0.391,-0.129 0.61,-0.129 0.3,0 0.555,0.069 0.768,0.207 0.215,0.138 0.403,0.348 0.566,0.632 0.091,0.167 0.188,0.297 0.292,0.393 0.105,0.093 0.235,0.143 0.388,0.143 0.181,0 0.333,-0.071 0.451,-0.208 C -0.061,0.304 0,0.155 0,0"
             style="fill:#ffffff;fill-opacity:1;fill-rule:nonzero;stroke:none"
             id="path472" /></g><g
           id="g474"
           transform="translate(307.7637,21.0509)"><path
             d="M 0,0 C 0,0.607 -0.134,1.079 -0.401,1.417 -0.666,1.759 -1.026,1.926 -1.476,1.926 -1.768,1.926 -2.025,1.851 -2.247,1.701 -2.469,1.55 -2.638,1.328 -2.758,1.032 -2.878,0.738 -2.939,0.394 -2.939,0 c 0,-0.39 0.059,-0.727 0.178,-1.018 0.119,-0.293 0.288,-0.515 0.508,-0.669 0.222,-0.153 0.48,-0.232 0.777,-0.232 0.45,0 0.81,0.17 1.075,0.512 C -0.134,-1.068 0,-0.598 0,0 M 1.494,0 C 1.494,-0.442 1.424,-0.852 1.29,-1.227 1.148,-1.602 0.951,-1.924 0.688,-2.191 0.426,-2.46 0.113,-2.666 -0.249,-2.811 c -0.367,-0.142 -0.774,-0.215 -1.227,-0.215 -0.451,0 -0.857,0.073 -1.218,0.22 -0.357,0.143 -0.672,0.352 -0.933,0.621 -0.265,0.273 -0.464,0.593 -0.603,0.962 -0.132,0.369 -0.202,0.777 -0.202,1.223 0,0.451 0.071,0.864 0.206,1.239 0.139,0.375 0.338,0.695 0.596,0.96 0.259,0.265 0.57,0.469 0.936,0.614 0.37,0.143 0.775,0.215 1.218,0.215 0.45,0 0.859,-0.072 1.227,-0.219 C 0.117,2.665 0.43,2.456 0.694,2.189 0.957,1.917 1.155,1.598 1.291,1.23 1.425,0.856 1.494,0.449 1.494,0"
             style="fill:#ffffff;fill-opacity:1;fill-rule:nonzero;stroke:none"
             id="path476" /></g><g
           id="g478"
           transform="translate(314.9351,20.9417)"><path
             d="m 0,0 v -1.978 c 0,-0.314 -0.069,-0.546 -0.212,-0.704 -0.143,-0.157 -0.328,-0.235 -0.561,-0.235 -0.225,0 -0.41,0.078 -0.546,0.235 -0.142,0.158 -0.213,0.39 -0.213,0.704 v 2.371 c 0,0.375 -0.012,0.667 -0.037,0.875 C -1.595,1.471 -1.665,1.644 -1.777,1.775 -1.889,1.91 -2.069,1.976 -2.311,1.976 -2.799,1.976 -3.118,1.81 -3.273,1.471 -3.427,1.14 -3.506,0.66 -3.506,0.032 v -2.01 c 0,-0.309 -0.07,-0.543 -0.208,-0.702 -0.143,-0.157 -0.325,-0.237 -0.553,-0.237 -0.227,0 -0.412,0.08 -0.555,0.237 -0.145,0.159 -0.216,0.393 -0.216,0.702 V 2.28 c 0,0.281 0.064,0.494 0.192,0.638 0.132,0.147 0.302,0.219 0.511,0.219 0.204,0 0.374,-0.071 0.511,-0.204 C -3.688,2.796 -3.62,2.608 -3.62,2.368 V 2.227 c 0.26,0.308 0.536,0.535 0.829,0.678 0.296,0.149 0.621,0.221 0.983,0.221 0.374,0 0.695,-0.075 0.963,-0.223 0.269,-0.15 0.49,-0.376 0.666,-0.676 0.252,0.304 0.521,0.53 0.809,0.678 0.287,0.147 0.604,0.221 0.954,0.221 0.405,0 0.758,-0.081 1.053,-0.24 C 2.929,2.726 3.149,2.496 3.295,2.2 3.422,1.929 3.485,1.505 3.485,0.928 v -2.906 c 0,-0.314 -0.07,-0.546 -0.211,-0.704 -0.141,-0.157 -0.33,-0.235 -0.562,-0.235 -0.227,0 -0.41,0.08 -0.554,0.237 -0.144,0.159 -0.216,0.393 -0.216,0.702 v 2.503 c 0,0.321 -0.013,0.576 -0.04,0.768 C 1.875,1.486 1.801,1.649 1.683,1.779 1.561,1.91 1.378,1.976 1.136,1.976 0.939,1.976 0.753,1.915 0.577,1.8 0.401,1.686 0.263,1.526 0.163,1.333 0.057,1.082 0,0.637 0,0"
             style="fill:#ffffff;fill-opacity:1;fill-rule:nonzero;stroke:none"
             id="path480" /></g><g
           id="g482"
           transform="translate(245.6582,21.4113)"><path
             d="M 0,0 C -0.001,0.003 -0.001,0.006 -0.001,0.01 -0.001,0.006 -0.001,0.003 0,0"
             style="fill:#ffffff;fill-opacity:1;fill-rule:nonzero;stroke:none"
             id="path484" /></g><g
           id="g486"
           transform="translate(245.7332,20.9355)"><path
             d="M 0,0 H 0.002 C -0.027,0.136 -0.049,0.27 -0.066,0.403 -0.049,0.269 -0.027,0.134 0,0"
             style="fill:#ffffff;fill-opacity:1;fill-rule:nonzero;stroke:none"
             id="path488" /></g><g
           id="g490"
           transform="translate(246.2259,19.5545)"><path
             d="M 0,0 C -0.003,0.006 -0.006,0.012 -0.01,0.019 -0.006,0.012 -0.003,0.006 0,0"
             style="fill:#ffffff;fill-opacity:1;fill-rule:nonzero;stroke:none"
             id="path492" /></g><g
           id="g494"
           transform="translate(246.1788,19.6463)"><path
             d="M 0,0 C -0.013,0.025 -0.025,0.052 -0.038,0.077 -0.025,0.05 -0.013,0.025 0,0"
             style="fill:#ffffff;fill-opacity:1;fill-rule:nonzero;stroke:none"
             id="path496" /></g><g
           id="g498"
           transform="translate(245.8717,20.4035)"><path
             d="M 0,0 C 0.073,-0.23 0.161,-0.452 0.262,-0.665 0.159,-0.448 0.073,-0.225 0.002,0 Z"
             style="fill:#ffffff;fill-opacity:1;fill-rule:nonzero;stroke:none"
             id="path500" /></g><g
           id="g502"
           transform="translate(251.4191,27.1143)"><path
             d="m 0,0 c 0.288,0 0.5,-0.023 0.743,-0.064 l 0.069,0.438 c 0,0 -0.672,0.207 -1.555,0.134 l -0.07,0.239 c 0.275,0.057 0.481,0.302 0.481,0.593 0,0.334 -0.272,0.605 -0.607,0.605 -0.334,0 -0.606,-0.271 -0.606,-0.605 0,-0.291 0.206,-0.536 0.48,-0.593 L -0.988,0.481 C -1.926,0.352 -2.673,-0.014 -2.673,-0.014 l 0.133,-0.405 c 0.567,0.189 1.059,0.304 1.506,0.352 C -0.597,-0.02 -0.268,0 0,0"
             style="fill:#ffffff;fill-opacity:1;fill-rule:nonzero;stroke:none"
             id="path504" /></g><g
           id="g506"
           transform="translate(246.2147,24.8999)"><path
             d="M 0,0 0.003,0.004 C 0.025,0.033 0.047,0.06 0.068,0.086 l -0.179,0.13 -0.28,0.204 c -0.016,-0.022 -0.457,-0.427 -0.805,-1.175 -0.014,0.023 -0.032,0.046 -0.051,0.068 -0.104,0.114 -0.25,0.172 -0.435,0.169 h -0.009 c -0.114,0 -0.193,0.038 -0.245,0.085 0.052,0.065 0.082,0.147 0.082,0.237 0,0.211 -0.172,0.384 -0.384,0.384 -0.211,0 -0.383,-0.173 -0.383,-0.384 0,-0.213 0.172,-0.384 0.383,-0.384 0.034,0 0.065,0.005 0.096,0.012 0.094,-0.105 0.244,-0.197 0.464,-0.192 0.113,0.001 0.195,-0.028 0.251,-0.089 0.063,-0.07 0.085,-0.17 0.091,-0.246 0,-0.001 0,-0.003 -10e-4,-0.003 -0.25,-0.682 -0.179,-1.532 -0.179,-1.532 l 0.607,-0.024 c 0.012,0.309 0.056,0.851 0.213,1.28 C -0.394,-0.542 -0.015,-0.022 0,0"
             style="fill:#ffffff;fill-opacity:1;fill-rule:nonzero;stroke:none"
             id="path508" /></g><g
           id="g510"
           transform="translate(256.6989,26.6071)"><path
             d="m 0,0 c -0.211,0 -0.384,-0.172 -0.384,-0.384 0,-0.033 0.005,-0.064 0.013,-0.095 -0.105,-0.095 -0.196,-0.245 -0.193,-0.465 0.002,-0.113 -0.027,-0.195 -0.088,-0.25 -0.049,-0.044 -0.11,-0.066 -0.17,-0.081 -0.452,0.633 -1.008,1.019 -1.008,1.019 l -0.436,-0.467 c 0.329,-0.299 0.666,-0.674 0.992,-1.142 0.226,-0.324 0.459,-0.741 0.652,-1.157 l 0.588,0.279 c 0,0 -0.268,0.664 -0.646,1.258 0.066,0.023 0.132,0.059 0.19,0.111 0.115,0.103 0.172,0.25 0.168,0.435 -0.001,0.119 0.038,0.2 0.085,0.253 0.066,-0.05 0.148,-0.082 0.237,-0.082 0.213,0 0.384,0.172 0.384,0.384 C 0.384,-0.172 0.213,0 0,0"
             style="fill:#ffffff;fill-opacity:1;fill-rule:nonzero;stroke:none"
             id="path512" /></g><g
           id="g514"
           transform="translate(255.1738,21.3257)"><path
             d="M 0,0 C -0.809,-0.394 -2.14,-0.915 -3.892,-1.159 -4.58,-1.254 -5.246,-1.29 -5.86,-1.29 c -0.798,0 -1.503,0.06 -2.044,0.128 -0.618,0.078 -1.101,0.173 -1.396,0.24 0.071,-0.225 0.157,-0.448 0.26,-0.665 0.002,-0.005 0.005,-0.012 0.007,-0.016 0.013,-0.025 0.025,-0.051 0.038,-0.076 0.012,-0.025 0.025,-0.05 0.037,-0.073 0.004,-0.007 0.007,-0.014 0.01,-0.019 0.174,-0.327 0.383,-0.629 0.62,-0.889 0.827,-0.904 1.669,-1.047 1.677,-1.048 l 0.013,-0.002 0.012,-0.004 c 0.008,-0.003 0.754,-0.244 1.889,-0.244 1.117,0 2.213,0.225 3.257,0.67 0.773,0.395 1.505,0.996 1.867,1.532 0.281,0.415 0.483,0.857 0.603,1.317 0.064,0.244 0.114,0.635 0.084,1.047 C 0.847,0.455 0.487,0.237 0,0"
             style="fill:#ffffff;fill-opacity:1;fill-rule:nonzero;stroke:none"
             id="path516" /></g><g
           id="g518"
           transform="translate(248.7862,25.1308)"><path
             d="M 0,0 C 0.893,0 1.617,-0.724 1.617,-1.617 1.617,-2.51 0.893,-3.232 0,-3.232 c -0.892,0 -1.616,0.722 -1.616,1.615 C -1.616,-0.724 -0.892,0 0,0 m 4.73,-0.04 c 0.552,0 1.001,-0.448 1.001,-1 0,-0.552 -0.449,-1.001 -1.001,-1.001 -0.552,0 -1,0.449 -1,1.001 0,0.552 0.448,1 1,1 m -7.042,-0.383 c -0.023,-0.034 -0.374,-0.53 -0.651,-1.293 -0.208,-0.571 -0.199,-1.402 -0.199,-1.412 v -10e-4 c 0,-0.195 0.011,-0.389 0.033,-0.58 0,-0.005 0,-0.008 10e-4,-0.01 0.002,-0.025 0.006,-0.049 0.009,-0.073 0.017,-0.133 0.039,-0.268 0.068,-0.403 0.402,-0.102 2.8,-0.662 5.48,-0.288 1.68,0.233 2.955,0.73 3.73,1.105 0.643,0.313 1.057,0.595 1.217,0.711 -0.159,0.59 -0.598,1.516 -1.001,2.093 C 5.225,1.07 3.984,1.492 3.346,1.597 3.103,1.637 2.909,1.66 2.633,1.66 2.376,1.66 2.058,1.639 1.632,1.595 1.206,1.55 0.73,1.438 0.179,1.253 -0.594,0.994 -1.294,0.587 -1.845,0.077 L -1.864,0.06 c -0.081,-0.075 -0.252,-0.233 -0.448,-0.483"
             style="fill:#ffffff;fill-opacity:1;fill-rule:nonzero;stroke:none"
             id="path520" /></g></g></g></g></svg>
