<svg width="26" height="26" viewBox="0 0 26 26" fill="none" xmlns="http://www.w3.org/2000/svg">
<path d="M22.3045 12.8358V24.6716H3.36719V12.8358" stroke="#4A8EFF" stroke-width="2" stroke-linecap="round" stroke-linejoin="round"/>
<path d="M24.6716 6.91788H1V12.8358H24.6716V6.91788Z" stroke="#4A8EFF" stroke-width="2" stroke-linecap="round" stroke-linejoin="round"/>
<path d="M12.8358 24.6716V6.91788" stroke="#4A8EFF" stroke-width="2" stroke-linecap="round" stroke-linejoin="round"/>
<path d="M12.836 6.9179H7.50985C6.72509 6.9179 5.97247 6.60616 5.41756 6.05125C4.86265 5.49634 4.5509 4.74371 4.5509 3.95895C4.5509 3.17419 4.86265 2.42157 5.41756 1.86666C5.97247 1.31175 6.72509 1 7.50985 1C11.6524 1 12.836 6.9179 12.836 6.9179Z" stroke="#4A8EFF" stroke-width="2" stroke-linecap="round" stroke-linejoin="round"/>
<path d="M12.8358 6.9179H18.1619C18.9467 6.9179 19.6993 6.60616 20.2542 6.05125C20.8091 5.49634 21.1209 4.74371 21.1209 3.95895C21.1209 3.17419 20.8091 2.42157 20.2542 1.86666C19.6993 1.31175 18.9467 1 18.1619 1C14.0194 1 12.8358 6.9179 12.8358 6.9179Z" stroke="#4A8EFF" stroke-width="2" stroke-linecap="round" stroke-linejoin="round"/>
</svg>
