<svg width="32" height="26" viewBox="0 0 32 26" fill="none" xmlns="http://www.w3.org/2000/svg">
<path d="M30.4821 2.29852V10.1085H22.6721" stroke="#4A8EFF" stroke-width="2" stroke-linecap="round" stroke-linejoin="round"/>
<path d="M1.8457 23.1252V15.3152H9.65571" stroke="#4A8EFF" stroke-width="2" stroke-linecap="round" stroke-linejoin="round"/>
<path d="M5.11289 8.80692C5.77305 6.94135 6.89504 5.27342 8.37417 3.95876C9.8533 2.64409 11.6414 1.72555 13.5715 1.28883C15.5016 0.852112 17.5109 0.911455 19.4119 1.46132C21.313 2.01119 23.0437 3.03366 24.4426 4.43332L30.4824 10.1086M1.8457 15.3153L7.88544 20.9905C9.2844 22.3902 11.0151 23.4127 12.9161 23.9625C14.8171 24.5124 16.8264 24.5717 18.7566 24.135C20.6867 23.6983 22.4748 22.7798 23.9539 21.4651C25.433 20.1504 26.555 18.4825 27.2152 16.6169" stroke="#4A8EFF" stroke-width="2" stroke-linecap="round" stroke-linejoin="round"/>
</svg>
