<?xml version="1.0" standalone="no"?>
<!DOCTYPE svg PUBLIC "-//W3C//DTD SVG 20010904//EN"
 "http://www.w3.org/TR/2001/REC-SVG-20010904/DTD/svg10.dtd">
<svg version="1.0" xmlns="http://www.w3.org/2000/svg"
 width="901.000000pt" height="901.000000pt" viewBox="0 0 901.000000 901.000000"
 preserveAspectRatio="xMidYMid meet">
<metadata>
Created by potrace 1.11, written by Peter Selinger 2001-2013
</metadata>
<g transform="translate(0.000000,901.000000) scale(0.100000,-0.100000)"
fill="#000000" stroke="none">
<path d="M7009 8982 c-9 -15 -65 -112 -125 -217 -61 -104 -186 -320 -278 -480
-427 -736 -564 -972 -574 -991 -10 -20 -9 -21 26 -18 20 2 182 3 360 4 377 0
371 2 424 -102 12 -24 29 -54 38 -68 27 -41 104 -185 99 -187 -2 -1 0 -5 5
-10 5 -5 6 -3 2 5 -4 6 -5 12 -2 12 4 0 17 -22 100 -173 15 -26 24 -53 20 -59
-4 -6 -3 -8 4 -5 6 4 26 -21 48 -60 20 -38 63 -112 96 -166 32 -54 58 -100 58
-102 0 -2 30 -53 66 -112 36 -59 68 -120 71 -135 3 -15 9 -26 13 -23 5 3 26
-32 49 -77 23 -45 41 -77 41 -72 1 8 33 -45 35 -56 0 -3 8 -16 17 -30 23 -35
102 -170 168 -286 30 -53 86 -148 123 -211 49 -83 66 -121 62 -136 -5 -16 -4
-18 3 -8 8 11 12 10 21 -8 7 -12 9 -27 5 -33 -4 -7 -3 -8 4 -4 7 4 17 -4 24
-21 7 -15 15 -30 19 -33 3 -3 46 -75 94 -160 48 -85 98 -172 111 -193 13 -20
21 -37 17 -37 -5 0 -3 -4 3 -8 21 -14 81 -117 76 -131 -3 -8 0 -11 6 -8 16 10
35 -50 29 -92 -2 -21 -29 -78 -61 -130 -31 -51 -71 -118 -88 -149 -17 -32 -36
-60 -42 -64 -6 -4 -8 -8 -4 -8 4 0 -11 -28 -33 -62 -22 -35 -46 -77 -54 -94
-8 -17 -21 -34 -30 -38 -9 -3 -13 -11 -10 -17 4 -5 -9 -35 -29 -64 -20 -30
-36 -57 -36 -59 0 -9 -104 -182 -114 -188 -6 -4 -8 -8 -4 -8 9 0 -121 -223
-136 -232 -6 -4 -7 -8 -3 -8 4 0 3 -9 -3 -20 -6 -11 -14 -18 -18 -16 -5 3 -8
-3 -9 -13 -1 -16 -35 -76 -194 -344 -35 -59 -74 -127 -86 -150 -12 -23 -22
-38 -22 -33 -1 5 -19 -27 -42 -72 -23 -45 -44 -80 -49 -77 -4 3 -10 -8 -13
-23 -3 -15 -35 -76 -71 -135 -36 -59 -66 -111 -66 -114 0 -3 -13 -25 -30 -50
-16 -24 -30 -46 -30 -48 0 -3 -30 -56 -66 -120 -39 -67 -70 -112 -76 -108 -7
3 -8 1 -4 -5 4 -6 2 -21 -5 -33 -9 -18 -13 -19 -21 -8 -7 10 -8 8 -3 -7 6 -22
-44 -120 -69 -136 -6 -4 -7 -8 -3 -8 4 0 3 -9 -3 -20 -6 -12 -16 -18 -23 -14
-7 4 -9 4 -5 -1 12 -12 -11 -44 -45 -65 -31 -19 -59 -20 -976 -20 l-943 0 7
27 c6 26 85 164 111 193 7 8 13 17 13 20 0 16 14 39 22 34 5 -3 6 2 3 10 -3 9
-1 16 5 16 6 0 10 3 9 8 -4 14 59 112 67 104 4 -4 5 -1 0 7 -5 9 -2 19 9 27
10 7 19 19 20 27 1 9 31 64 66 124 36 59 74 124 85 143 11 20 33 59 49 88 17
30 34 49 40 45 6 -3 8 -3 4 2 -8 8 31 83 107 210 23 39 52 89 65 112 13 23 27
40 31 37 5 -3 6 2 3 10 -4 10 -1 16 7 16 7 0 10 3 6 6 -3 3 13 36 35 72 23 37
56 93 73 125 18 32 39 67 48 78 10 11 17 22 17 24 0 5 75 138 113 200 6 11 29
48 49 82 21 34 38 65 38 68 0 8 121 209 138 228 8 9 12 17 8 17 -4 0 -2 9 4
20 6 11 16 17 22 14 7 -4 8 -3 4 4 -4 7 18 53 48 103 31 50 56 93 56 95 0 2
26 48 59 102 101 168 131 223 131 238 0 8 4 13 8 10 5 -3 7 9 4 27 -5 39 -43
137 -53 137 -4 0 -24 28 -44 63 -20 34 -51 87 -70 117 -19 30 -34 61 -35 69 0
8 20 46 43 85 50 82 178 301 222 381 17 30 33 55 36 55 11 0 39 -72 33 -82 -4
-6 -3 -8 3 -5 8 5 30 -28 106 -163 14 -25 50 -88 81 -139 31 -52 56 -103 56
-113 0 -10 7 -21 15 -25 9 -3 31 -38 50 -77 19 -39 35 -66 35 -61 1 9 32 -43
34 -55 0 -3 15 -27 33 -55 18 -27 31 -56 28 -63 -3 -7 -1 -10 5 -7 11 7 30
-27 30 -55 0 -18 -23 -75 -36 -89 -2 -3 -11 4 -20 15 -15 18 -15 17 -1 -6 12
-21 12 -29 2 -43 -6 -9 -14 -15 -17 -12 -2 3 -5 -1 -5 -8 -1 -25 -85 -167 -95
-160 -7 3 -8 1 -4 -5 6 -10 -9 -39 -62 -122 -9 -14 -17 -27 -17 -30 -4 -17
-30 -60 -37 -60 -4 0 -7 -3 -6 -7 4 -10 -42 -84 -62 -101 -8 -8 -9 -10 -2 -7
11 6 12 3 3 -14 -7 -11 -16 -21 -21 -21 -6 0 -10 -7 -10 -15 0 -9 -25 -56 -55
-106 -31 -50 -69 -116 -87 -147 -17 -32 -38 -65 -46 -75 -9 -10 -17 -24 -18
-31 -1 -7 -14 -33 -30 -57 -15 -24 -42 -71 -60 -104 -19 -33 -38 -59 -44 -57
-7 1 -9 -2 -6 -7 6 -10 -98 -201 -115 -212 -6 -3 -11 -10 -11 -15 0 -5 -16
-38 -36 -72 -21 -35 -51 -88 -68 -118 -17 -31 -38 -64 -47 -75 -9 -10 -14 -19
-11 -19 3 0 -3 -12 -14 -27 -10 -16 -47 -79 -81 -140 -36 -64 -68 -110 -74
-106 -5 3 -7 2 -4 -4 4 -6 -9 -39 -28 -74 -39 -73 -43 -104 -16 -119 28 -15
615 -14 644 1 26 14 93 71 89 76 -3 4 20 46 98 178 26 44 64 110 84 148 22 39
42 64 48 60 7 -3 8 -1 4 6 -4 6 13 45 38 86 25 42 46 80 46 85 0 6 5 10 10 10
6 0 10 5 10 10 0 10 110 204 128 225 4 6 8 12 9 15 1 5 26 49 106 182 26 44
47 84 47 89 0 5 4 9 8 9 4 0 13 14 19 31 8 20 16 28 24 23 8 -4 9 -3 5 4 -4 6
-2 21 5 33 9 18 13 19 21 8 7 -10 8 -8 3 8 -4 16 13 52 65 138 38 64 70 118
70 120 0 4 45 83 138 240 20 33 40 63 45 66 5 3 8 9 7 13 -1 4 9 24 21 44 13
20 29 50 36 65 16 35 38 58 48 49 5 -4 5 -2 2 5 -4 6 13 50 38 96 58 109 59
148 10 230 -19 32 -32 63 -29 69 4 7 2 8 -4 4 -7 -4 -22 14 -38 46 -15 29 -53
97 -86 151 -32 54 -57 105 -56 115 2 9 -2 16 -9 15 -7 -2 -17 6 -23 17 -6 11
-7 20 -3 20 4 0 2 4 -4 8 -7 4 -23 26 -35 49 -13 22 -39 69 -60 104 -20 35
-36 68 -36 73 0 5 -4 12 -9 15 -10 7 -113 177 -113 186 0 4 -9 19 -20 35 -30
42 -170 289 -170 300 0 6 -4 10 -10 10 -5 0 -10 4 -10 10 0 5 -18 39 -39 74
-22 35 -37 67 -34 70 4 3 2 6 -4 6 -9 0 -31 38 -29 51 0 4 -6 15 -15 25 -30
33 -79 125 -73 135 3 5 1 8 -6 7 -6 -2 -30 31 -53 72 -118 210 -134 219 -194
109 -14 -27 -31 -49 -36 -49 -6 0 -7 -3 -4 -6 9 -9 -12 -46 -23 -39 -5 3 -12
0 -16 -6 -4 -8 -3 -9 4 -5 21 13 13 -4 -51 -113 -35 -58 -76 -129 -92 -158
-15 -29 -32 -50 -38 -46 -6 3 -7 1 -3 -5 3 -6 -10 -37 -29 -70 -19 -33 -35
-63 -35 -66 0 -3 -13 -24 -29 -48 -16 -24 -41 -65 -57 -93 -15 -27 -36 -63
-46 -80 -10 -16 -21 -37 -25 -45 -3 -8 -23 -42 -43 -75 -20 -33 -50 -82 -66
-110 -16 -27 -36 -63 -46 -80 -10 -16 -29 -52 -43 -78 -16 -29 -30 -45 -37
-41 -6 4 -8 3 -5 -3 7 -11 -39 -102 -57 -115 -6 -4 -7 -8 -3 -8 4 0 -7 -24
-25 -53 -19 -28 -45 -74 -58 -100 -14 -26 -32 -56 -41 -65 -8 -9 -16 -20 -17
-24 -8 -26 -15 -37 -21 -34 -4 3 -7 -3 -8 -13 -1 -9 -32 -69 -70 -134 -37 -64
-83 -143 -102 -177 -29 -51 -36 -58 -50 -47 -14 10 -14 10 -3 -5 11 -14 9 -23
-15 -60 -15 -24 -28 -45 -28 -48 -4 -18 -30 -60 -37 -60 -4 0 -7 -3 -6 -7 4
-10 -42 -84 -62 -101 -8 -8 -9 -10 -2 -7 11 6 12 3 3 -14 -7 -11 -16 -21 -21
-21 -6 0 -10 -7 -10 -15 0 -9 -27 -60 -60 -115 -33 -54 -68 -113 -78 -132
-131 -231 -196 -337 -205 -331 -6 3 -7 1 -3 -5 4 -6 -7 -37 -25 -69 -61 -111
-82 -148 -94 -163 -7 -8 -27 -42 -45 -75 -18 -33 -37 -63 -42 -66 -5 -3 -8 -8
-7 -10 5 -7 -119 -220 -134 -230 -5 -3 -8 -9 -8 -13 1 -6 -9 -26 -52 -98 -12
-21 -68 -118 -124 -215 -129 -225 -148 -255 -157 -253 -4 1 -11 -2 -14 -6 -4
-4 -1 -3 7 1 21 12 11 -9 -57 -122 -33 -54 -71 -122 -86 -151 -16 -32 -31 -50
-38 -46 -6 4 -8 3 -4 -4 3 -6 -11 -38 -31 -72 -21 -33 -44 -73 -52 -88 -8 -15
-26 -37 -40 -49 l-26 -23 -515 0 -516 0 -106 -182 c-124 -213 -552 -952 -740
-1278 -72 -124 -137 -235 -144 -247 l-14 -23 3605 0 3605 0 0 4505 0 4505
-992 0 -993 0 -16 -28z"/>
<path d="M2136 7115 c-3 -9 -11 -13 -17 -9 -8 5 -9 3 -4 -5 6 -10 11 -9 23 3
9 8 13 18 10 21 -3 3 -8 -1 -12 -10z"/>
<path d="M5090 7110 c0 -5 5 -10 11 -10 5 0 7 5 4 10 -3 6 -8 10 -11 10 -2 0
-4 -4 -4 -10z"/>
<path d="M5020 7051 c0 -6 4 -13 10 -16 6 -3 7 1 4 9 -7 18 -14 21 -14 7z"/>
<path d="M2060 6989 c-7 -11 -10 -23 -7 -25 2 -2 9 7 15 21 14 30 7 33 -8 4z"/>
<path d="M3945 6999 c-4 -6 -5 -12 -2 -15 2 -3 7 2 10 11 7 17 1 20 -8 4z"/>
<path d="M3850 6759 c0 -5 5 -7 10 -4 6 3 10 8 10 11 0 2 -4 4 -10 4 -5 0 -10
-5 -10 -11z"/>
<path d="M5706 6732 c-22 -35 -158 -270 -324 -557 -41 -71 -146 -251 -232
-400 -157 -270 -618 -1065 -722 -1245 -100 -173 -530 -914 -583 -1005 -65
-110 -500 -861 -602 -1038 -40 -70 -84 -144 -96 -165 -46 -73 -53 -68 122 -75
96 -4 172 -2 194 4 21 5 42 7 49 3 7 -4 8 -3 4 4 -4 7 -2 12 4 12 20 0 103 85
132 137 17 30 34 50 40 46 6 -3 8 -1 5 4 -4 6 9 39 28 73 19 34 35 64 35 66 0
3 7 16 17 30 12 19 18 22 25 12 6 -8 7 -5 3 11 -5 17 -4 22 5 16 9 -5 11 -4 6
3 -4 6 5 29 19 51 14 23 25 43 25 46 0 3 20 38 44 78 24 39 55 96 70 125 16
32 31 50 38 46 7 -4 8 -3 4 4 -6 10 9 39 62 122 9 14 17 27 18 30 5 22 18 39
27 33 6 -3 7 -1 3 6 -4 6 13 45 38 86 25 42 46 80 46 85 0 6 5 10 10 10 6 0
10 5 10 10 0 14 121 223 134 232 6 4 8 8 3 8 -4 0 8 24 27 53 54 83 126 209
126 218 0 5 4 9 8 9 4 0 13 14 19 31 8 20 16 28 24 23 8 -4 9 -3 5 4 -4 6 -2
21 5 33 9 18 13 19 21 8 7 -10 8 -8 3 7 -5 21 44 120 67 135 5 3 9 9 9 13 -1
13 11 36 18 32 4 -3 7 3 8 13 1 16 30 66 194 344 35 59 72 122 82 140 10 18
28 49 40 69 12 20 48 84 80 142 32 58 62 108 67 111 4 3 18 25 30 50 12 25 26
45 31 45 6 0 8 4 5 8 -7 11 11 37 26 37 7 0 12 8 10 17 -1 10 24 61 56 115 33
54 71 122 86 151 16 32 31 50 38 46 7 -4 8 -3 4 4 -4 6 0 22 7 34 8 13 28 43
43 68 16 25 29 47 29 50 4 18 30 60 37 60 4 0 7 3 6 8 -4 9 42 83 62 100 8 8
9 10 2 7 -11 -6 -12 -3 -3 14 7 11 15 21 19 21 5 0 13 15 20 33 6 17 26 55 44
84 51 79 92 147 92 153 1 3 12 23 25 45 21 36 24 38 32 20 6 -14 7 -11 3 13
-3 20 -1 32 5 32 6 0 10 3 9 8 -3 16 15 41 26 35 6 -3 8 -3 4 2 -7 7 51 124
92 185 50 76 122 214 127 244 5 33 4 35 -36 46 -23 6 -112 10 -206 10 l-166
-2 -23 -36z"/>
<path d="M4814 6712 c0 -10 6 -19 13 -19 8 0 9 6 2 19 -5 10 -11 18 -12 18 -2
0 -3 -8 -3 -18z"/>
<path d="M5405 6722 c-5 -4 -17 -16 -25 -27 -11 -15 -7 -14 13 4 24 22 32 31
25 31 -2 0 -7 -4 -13 -8z"/>
<path d="M3760 6605 c-7 -9 -11 -17 -9 -20 3 -2 10 5 17 15 14 24 10 26 -8 5z"/>
<path d="M3126 6542 c-3 -5 1 -9 9 -9 8 0 12 4 9 9 -3 4 -7 8 -9 8 -2 0 -6 -4
-9 -8z"/>
<path d="M1735 6451 c-3 -5 -2 -12 3 -15 5 -3 9 1 9 9 0 17 -3 19 -12 6z"/>
<path d="M6696 6397 c3 -10 9 -15 12 -12 3 3 0 11 -7 18 -10 9 -11 8 -5 -6z"/>
<path d="M4578 6308 c12 -16 35 -18 48 -6 3 4 -2 5 -13 4 -10 -2 -25 2 -33 8
-13 9 -13 9 -2 -6z"/>
<path d="M1645 6299 c-4 -6 -5 -12 -2 -15 2 -3 7 2 10 11 7 17 1 20 -8 4z"/>
<path d="M2216 6277 c3 -10 9 -15 12 -12 3 3 0 11 -7 18 -10 9 -11 8 -5 -6z"/>
<path d="M1606 6223 c-6 -14 -5 -15 5 -6 7 7 10 15 7 18 -3 3 -9 -2 -12 -12z"/>
<path d="M3450 6126 c0 -2 8 -10 18 -17 15 -13 16 -12 3 4 -13 16 -21 21 -21
13z"/>
<path d="M4455 6059 c-4 -6 -5 -12 -2 -15 2 -3 7 2 10 11 7 17 1 20 -8 4z"/>
<path d="M4986 6008 c3 -5 10 -6 15 -3 13 9 11 12 -6 12 -8 0 -12 -4 -9 -9z"/>
<path d="M3360 5991 c0 -6 4 -13 10 -16 6 -3 7 1 4 9 -7 18 -14 21 -14 7z"/>
<path d="M4935 5959 c-4 -6 -5 -12 -2 -15 2 -3 7 2 10 11 7 17 1 20 -8 4z"/>
<path d="M2771 5905 c9 -11 14 -26 12 -32 -6 -18 4 -16 10 1 3 8 -4 22 -16 33
-22 18 -22 18 -6 -2z"/>
<path d="M4893 5902 c2 -12 9 -28 17 -35 10 -10 11 -9 4 3 -5 8 -9 21 -10 28
-2 8 -5 17 -8 20 -4 3 -5 -4 -3 -16z"/>
<path d="M4250 5751 c0 -6 4 -13 10 -16 6 -3 7 1 4 9 -7 18 -14 21 -14 7z"/>
<path d="M2666 5738 c3 -5 10 -6 15 -3 13 9 11 12 -6 12 -8 0 -12 -4 -9 -9z"/>
<path d="M1864 5679 c-3 -6 -2 -15 3 -20 5 -5 9 -1 9 11 0 23 -2 24 -12 9z"/>
<path d="M3199 5643 c-13 -16 -12 -17 4 -4 9 7 17 15 17 17 0 8 -8 3 -21 -13z"/>
<path d="M4215 5630 c-3 -5 -1 -10 4 -10 6 0 11 5 11 10 0 6 -2 10 -4 10 -3 0
-8 -4 -11 -10z"/>
<path d="M1236 5578 c3 -5 10 -6 15 -3 13 9 11 12 -6 12 -8 0 -12 -4 -9 -9z"/>
<path d="M2566 5582 c-3 -5 1 -9 9 -9 8 0 12 4 9 9 -3 4 -7 8 -9 8 -2 0 -6 -4
-9 -8z"/>
<path d="M1775 5519 c-4 -6 -5 -12 -2 -15 2 -3 7 2 10 11 7 17 1 20 -8 4z"/>
<path d="M4676 5477 c3 -10 9 -15 12 -12 3 3 0 11 -7 18 -10 9 -11 8 -5 -6z"/>
<path d="M1056 5267 c3 -10 9 -15 12 -12 3 3 0 11 -7 18 -10 9 -11 8 -5 -6z"/>
<path d="M4530 5241 c0 -6 4 -13 10 -16 6 -3 7 1 4 9 -7 18 -14 21 -14 7z"/>
<path d="M4504 5199 c-3 -6 -2 -15 3 -20 5 -5 9 -1 9 11 0 23 -2 24 -12 9z"/>
<path d="M5235 5099 c-3 -4 2 -6 10 -5 21 3 28 13 10 13 -9 0 -18 -4 -20 -8z"/>
<path d="M3815 5011 c-3 -5 -2 -12 3 -15 5 -3 9 1 9 9 0 17 -3 19 -12 6z"/>
<path d="M2182 4920 c-7 -11 -8 -20 -3 -20 9 0 24 30 18 36 -1 2 -8 -6 -15
-16z"/>
<path d="M1426 4905 c-9 -26 -7 -32 5 -12 6 10 9 21 6 23 -2 3 -7 -2 -11 -11z"/>
<path d="M857 4867 c-3 -8 1 -14 8 -14 7 0 11 6 8 14 -3 7 -6 13 -8 13 -2 0
-5 -6 -8 -13z"/>
<path d="M5096 4863 c-6 -14 -5 -15 5 -6 7 7 10 15 7 18 -3 3 -9 -2 -12 -12z"/>
<path d="M1370 4829 c13 -23 22 -25 13 -2 -5 12 -3 14 8 8 8 -5 11 -4 6 0 -4
5 -14 10 -22 11 -12 2 -12 -2 -5 -17z"/>
<path d="M2006 4622 c-3 -5 1 -9 9 -9 8 0 12 4 9 9 -3 4 -7 8 -9 8 -2 0 -6 -4
-9 -8z"/>
<path d="M4015 4430 c3 -5 8 -10 11 -10 2 0 4 5 4 10 0 6 -5 10 -11 10 -5 0
-7 -4 -4 -10z"/>
<path d="M2589 4383 c-13 -16 -12 -17 4 -4 9 7 17 15 17 17 0 8 -8 3 -21 -13z"/>
<path d="M3977 4273 c3 -7 6 -13 8 -13 2 0 5 6 8 13 3 8 -1 14 -8 14 -7 0 -11
-6 -8 -14z"/>
<path d="M2666 4222 c-3 -5 1 -9 9 -9 8 0 12 4 9 9 -3 4 -7 8 -9 8 -2 0 -6 -4
-9 -8z"/>
<path d="M2745 4130 c-3 -6 -11 -7 -17 -4 -7 4 -8 2 -4 -4 4 -6 -20 -58 -52
-114 -33 -57 -72 -125 -87 -153 -15 -27 -36 -61 -45 -75 -10 -14 -33 -54 -52
-90 l-35 -65 57 -100 c31 -55 90 -163 130 -240 40 -77 76 -144 81 -149 5 -5
13 1 19 15 5 13 14 31 20 39 19 29 120 201 120 204 0 2 23 43 52 92 28 49 63
109 76 134 14 25 32 53 41 63 12 14 12 18 2 15 -9 -2 -63 78 -147 217 -73 121
-137 221 -143 223 -5 2 -12 -2 -16 -8z"/>
<path d="M851 4113 c7 -12 15 -20 18 -17 3 2 -3 12 -13 22 -17 16 -18 16 -5
-5z"/>
<path d="M3850 4071 c0 -6 4 -13 10 -16 6 -3 7 1 4 9 -7 18 -14 21 -14 7z"/>
<path d="M1497 3987 c-3 -8 1 -14 8 -14 7 0 11 6 8 14 -3 7 -6 13 -8 13 -2 0
-5 -6 -8 -13z"/>
<path d="M1096 3717 c3 -10 9 -15 12 -12 3 3 0 11 -7 18 -10 9 -11 8 -5 -6z"/>
<path d="M1126 3617 c3 -10 9 -15 12 -12 3 3 0 11 -7 18 -10 9 -11 8 -5 -6z"/>
<path d="M1690 3591 c0 -6 4 -13 10 -16 6 -3 7 1 4 9 -7 18 -14 21 -14 7z"/>
<path d="M3450 3429 c0 -5 5 -7 10 -4 6 3 10 8 10 11 0 2 -4 4 -10 4 -5 0 -10
-5 -10 -11z"/>
<path d="M1866 3338 c3 -5 10 -6 15 -3 13 9 11 12 -6 12 -8 0 -12 -4 -9 -9z"/>
<path d="M3416 3317 c3 -10 9 -15 12 -12 3 3 0 11 -7 18 -10 9 -11 8 -5 -6z"/>
<path d="M3306 3147 c3 -10 9 -15 12 -12 3 3 0 11 -7 18 -10 9 -11 8 -5 -6z"/>
<path d="M2674 3049 c-3 -6 2 -18 12 -27 17 -16 17 -16 5 0 -7 9 -10 22 -6 28
3 5 4 10 1 10 -3 0 -8 -5 -12 -11z"/>
<path d="M3255 3029 c-4 -6 -5 -12 -2 -15 2 -3 7 2 10 11 7 17 1 20 -8 4z"/>
<path d="M3199 2923 c-13 -16 -12 -17 4 -4 16 13 21 21 13 21 -2 0 -10 -8 -17
-17z"/>
<path d="M1646 2746 c6 -15 4 -17 -6 -11 -9 6 -11 4 -5 -4 5 -9 10 -10 18 -2
8 8 7 14 -2 24 -10 10 -11 8 -5 -7z"/>
<path d="M2486 2698 c3 -5 10 -6 15 -3 13 9 11 12 -6 12 -8 0 -12 -4 -9 -9z"/>
<path d="M1702 2620 c7 -10 14 -18 15 -16 6 6 -9 36 -18 36 -5 0 -4 -9 3 -20z"/>
<path d="M1895 2280 c3 -5 8 -10 11 -10 2 0 4 5 4 10 0 6 -5 10 -11 10 -5 0
-7 -4 -4 -10z"/>
<path d="M2196 1802 c-3 -5 1 -9 9 -9 8 0 12 4 9 9 -3 4 -7 8 -9 8 -2 0 -6 -4
-9 -8z"/>
<path d="M2201 1767 c2 -1 13 -9 24 -17 19 -14 19 -14 6 3 -7 9 -18 17 -24 17
-6 0 -8 -1 -6 -3z"/>
</g>
</svg>
